<svg id="Layer_1" data-name="Layer 1" xmlns="http://www.w3.org/2000/svg" viewBox="0 0 297.925 139.0211"><defs><style>.cls-1{fill:#8ed8f8;}.cls-2{fill:#00b9f2;}.cls-3{fill:#2456a0;}</style></defs><title>Artboard 1</title><path class="cls-1" d="M58.4551,25.3416c0,1.788-1.6,2.9775-3.6026,2.6474L5.3213,19.8435C2.4063,19.3621,0,17.1726,0,14.9666V2.9607C0,.7527,2.4063-.49,5.3213.1824l49.5312,11.37a4.5748,4.5748,0,0,1,3.6026,4.0664v9.7227Z"/><path class="cls-2" d="M104.414,33.4968a2.0819,2.0819,0,0,1-2.391,2.25L70.4346,30.5515a3.9316,3.9316,0,0,1-3.2627-3.6621V17.5076a2.4745,2.4745,0,0,1,3.2627-2.3789l31.5884,7.2519a3.3519,3.3519,0,0,1,2.391,3.19v7.9257Z"/><path class="cls-1" d="M136.039,39.1127c0,1.2295-.755,2.1045-1.696,1.9483l-21.896-3.6016a2.9431,2.9431,0,0,1-2.203-2.9248v-7.7c0-1.415.991-2.3379,2.203-2.06l21.896,5.0273a2.66,2.66,0,0,1,1.696,2.62v6.6914Z"/><path class="cls-1" d="M58.4551,49.858a3.1732,3.1732,0,0,1-3.6026,3L5.3213,49.5894C2.4063,49.397,0,47.4449,0,45.24V33.2378c0-2.2158,2.4063-3.6943,5.3213-3.3115l49.5312,6.4922a4.0323,4.0323,0,0,1,3.6026,3.7188V49.858Z"/><path class="cls-2" d="M104.414,53.4833a2.3345,2.3345,0,0,1-2.391,2.4854l-31.5884-2.085a3.4765,3.4765,0,0,1-3.2627-3.3388V41.166a2.7506,2.7506,0,0,1,3.2627-2.7051l31.5884,4.1416a2.96,2.96,0,0,1,2.391,2.96v7.9209Z"/><path class="cls-2" d="M136.039,55.9852c0,1.2285-.755,2.1777-1.696,2.1162l-21.896-1.4453a2.609,2.609,0,0,1-2.203-2.709V46.2518a2.0686,2.0686,0,0,1,2.203-2.2842l21.896,2.87a2.3613,2.3613,0,0,1,1.696,2.457v6.69Z"/><path class="cls-2" d="M58.4551,74.3725A3.5671,3.5671,0,0,1,54.8525,77.73L5.3213,79.3432C2.4063,79.436,0,77.7211,0,75.517V63.5122c0-2.2159,2.4063-3.9278,5.3213-3.8331l49.5312,1.6124a3.5647,3.5647,0,0,1,3.6026,3.36v9.7207Z"/><path class="cls-3" d="M104.414,73.477a2.621,2.621,0,0,1-2.391,2.7158L70.4346,77.2221a3.0826,3.0826,0,0,1-3.2627-3.0185V64.8227a3.0818,3.0818,0,0,1,3.2627-3.0244l31.5884,1.0283a2.6247,2.6247,0,0,1,2.391,2.7217V73.477Z"/><path class="cls-2" d="M136.039,72.8579a2.0925,2.0925,0,0,1-1.696,2.2822l-21.896.7148a2.3185,2.3185,0,0,1-2.203-2.4941V65.6655a2.3192,2.3192,0,0,1,2.203-2.5l21.896.7158a2.09,2.09,0,0,1,1.696,2.2861v6.6905Z"/><path class="cls-2" d="M58.4551,98.8885a4.0351,4.0351,0,0,1-3.6026,3.71l-49.5312,6.489c-2.915.384-5.3213-1.095-5.3213-3.299V93.7865c0-2.216,2.4063-4.168,5.3213-4.359L54.8525,86.16a3.1721,3.1721,0,0,1,3.6026,3.01v9.719Z"/><path class="cls-3" d="M104.414,93.4615a2.9624,2.9624,0,0,1-2.391,2.953l-31.5884,4.139a2.7506,2.7506,0,0,1-3.2627-2.696V88.479a3.4757,3.4757,0,0,1,3.2627-3.3467l31.5884-2.084a2.3331,2.3331,0,0,1,2.391,2.4883v7.9249Z"/><path class="cls-3" d="M136.039,89.7275a2.3606,2.3606,0,0,1-1.696,2.451l-21.896,2.87a2.0673,2.0673,0,0,1-2.203-2.277V85.0766a2.6141,2.6141,0,0,1,2.203-2.7178l21.896-1.4443c.941-.06,1.696.89,1.696,2.123v6.69Z"/><path class="cls-3" d="M58.4551,123.4015a4.5735,4.5735,0,0,1-3.6026,4.066L5.3213,138.8385C2.4063,139.51,0,138.2705,0,136.0605v-12.002c0-2.213,2.4063-4.399,5.3213-4.88l49.5312-8.147c2.003-.329,3.6026.858,3.6026,2.652v9.718Z"/><path class="cls-3" d="M104.414,113.4485a3.3442,3.3442,0,0,1-2.391,3.187L70.4346,123.89a2.4733,2.4733,0,0,1-3.2627-2.374v-9.379a3.9324,3.9324,0,0,1,3.2627-3.669l31.5884-5.195a2.0821,2.0821,0,0,1,2.391,2.251v7.924Z"/><path class="cls-3" d="M136.039,106.6a2.6528,2.6528,0,0,1-1.696,2.617l-21.896,5.028c-1.212.278-2.203-.642-2.203-2.059v-7.696a2.9462,2.9462,0,0,1,2.203-2.931l21.896-3.6c.941-.155,1.696.716,1.696,1.952V106.6Z"/><path class="cls-3" d="M159.055,63.5747V31.895a.8181.8181,0,0,0-.81-.8555H155.77a.817.817,0,0,0-.81.8555v31.68a.8575.8575,0,0,0,.81.8994h2.475a.8553.8553,0,0,0,.81-.8994Z"/><path class="cls-3" d="M187.99,33.8295v-1.98a.792.792,0,0,0-.855-.81H165.49a.8583.8583,0,0,0-.9.81v1.98c0,.4952.405.72.9.72h8.775V63.5747a.8575.8575,0,0,0,.81.8994h2.475a.8553.8553,0,0,0,.81-.8994V34.5493h8.775c.495,0,.855-.27.855-.72Z"/><path class="cls-3" d="M202.39,52.19V50.434a.792.792,0,0,0-.855-.8095H192.58a.8178.8178,0,0,0-.855.8095V52.19a.7587.7587,0,0,0,.855.7646h8.955a.7834.7834,0,0,0,.855-.7646Z"/><path class="cls-3" d="M229.525,33.8295v-1.98a.792.792,0,0,0-.855-.81H207.025a.8583.8583,0,0,0-.9.81v1.98c0,.4952.405.72.9.72H215.8V63.5747a.8575.8575,0,0,0,.81.8994h2.475a.8553.8553,0,0,0,.81-.8994V34.5493h8.775c.495,0,.855-.27.855-.72Z"/><path class="cls-3" d="M247.57,63.5746V47.87c0-5.3106-2.52-8.46-8.775-8.46a38.7116,38.7116,0,0,0-6.975.585c-.63.09-.945.36-.945.8545v1.5752c0,.5849.405.7207.81.7207h.225a65.2981,65.2981,0,0,1,6.885-.36c3.51,0,4.815,1.3047,4.815,5.085v1.8h-3.33c-8.01,0-10.845,2.43-10.845,7.29v.54c0,5.625,3.51,7.29,7.335,7.29a13.7063,13.7063,0,0,0,6.93-2.2051v.99a.9021.9021,0,0,0,.9.8994h2.07a.9021.9021,0,0,0,.9-.8994Zm-3.96-3.8252a12.3843,12.3843,0,0,1-6.075,1.8c-2.61,0-4.14-.8545-4.14-4.0948v-.54c0-3.1953,1.44-4.41,6.885-4.41h3.33v7.2452Z"/><path class="cls-3" d="M274.165,41.8846v-1.17a1.0389,1.0389,0,0,0-1.035-.99h-9.855c-7.74,0-9.99,3.96-9.99,7.9658V48.05a6.6229,6.6229,0,0,0,2.07,5.2207A3.7038,3.7038,0,0,0,253.51,56.51v.0449a3.7042,3.7042,0,0,0,2.07,3.5108l.316.1348a7.29,7.29,0,0,0-2.836,5.7148V66.32c0,4.41,3.24,7.1543,10.35,7.1543,7.38,0,10.26-2.6543,10.26-6.9746v-.36c0-4.2295-4.23-5.4892-8.64-6.6142l-6.705-1.71c-1.035-.2705-1.395-.6758-1.395-1.44a1.641,1.641,0,0,1,1.125-1.53,12.96,12.96,0,0,0,5.22.9c6.93,0,9.99-2.7451,9.99-7.6953V47.69a6.3152,6.3152,0,0,0-1.53-4.6358l1.62-.3144c.495-.09.81-.2705.81-.8555ZM269.35,48.05c0,2.7-1.215,4.59-6.075,4.59-5.175,0-6.075-2.6094-6.075-4.59V47.69c0-2.5205,1.035-4.8154,6.075-4.8154,4.86,0,6.075,2.1152,6.075,4.8154V48.05Zm.36,18.45c0,2.4746-1.17,3.915-6.3,3.915-4.995,0-6.48-1.5752-6.48-4.0947v-.4053a5.3689,5.3689,0,0,1,2.205-4.59L264.22,62.63c4.051,1.0352,5.49,1.7549,5.49,3.51v.36Z"/><path class="cls-3" d="M297.925,52.37V49.94c0-6.3906-3.33-10.53-9.9-10.53-6.435,0-9.99,4.0947-9.99,10.53v4.05c0,8.37,5.04,10.8,10.215,10.8a40.8016,40.8016,0,0,0,8.055-.7646c.72-.1358.9-.45.9-1.0352v-1.53a.6376.6376,0,0,0-.72-.63h-.225a61.5738,61.5738,0,0,1-8.01.4952c-4.14,0-6.255-1.98-6.255-7.335v-.63H297.07c.54,0,.855-.4053.855-.99Zm-4.005-2.0254H281.995V49.94c0-4.86,2.16-7.0654,6.03-7.0654,3.96,0,5.895,1.98,5.895,7.0654v.4043Z"/><path class="cls-3" d="M174.67,81.78c0-5.5351-3.465-8.0556-10.755-8.0556a34.9346,34.9346,0,0,0-8.01.9c-.45.09-.855.36-.855.81v1.5752a.7128.7128,0,0,0,.72.8106h.18a61.9684,61.9684,0,0,1,7.965-.6748c4.86,0,6.75,1.3945,6.75,4.6347,0,2.7-.9,3.7793-4.635,6.3l-4.545,3.06c-4.905,3.285-6.885,7.155-6.885,11.835v3.645a.8652.8652,0,0,0,.9.855h17.865a.83.83,0,0,0,.9-.81v-1.98a.7968.7968,0,0,0-.9-.765H158.2v-.945c0-3.915,1.305-6.21,6.3-9.585l4.32-2.925c4.185-2.8352,5.85-5.13,5.85-8.6848Z"/><path class="cls-3" d="M202.885,93.7945V87.7192c0-9.9443-4.23-13.9951-11.025-13.9951s-11.07,4.0508-11.07,13.9951v6.0753c0,9.945,4.275,13.995,11.07,13.995s11.025-4.05,11.025-13.995Zm-4.095,0c0,7.605-2.7,10.53-6.93,10.53s-6.93-2.925-6.93-10.53V87.7192c0-7.6045,2.7-10.5293,6.93-10.5293s6.93,2.9248,6.93,10.5293v6.0753Z"/><path class="cls-3" d="M227.95,107.4745a.83.83,0,0,0,.9-.81v-1.98a.7968.7968,0,0,0-.9-.765h-7.2V74.895a.8548.8548,0,0,0-.855-.8555H218.05a2.1777,2.1777,0,0,0-.945.27L209.05,78c-.315.18-.45.2705-.45.5849v2.2949c0,.63.63.4952.99.36l7.065-2.97v25.65H209.5a.7968.7968,0,0,0-.9.765v1.98a.83.83,0,0,0,.9.81Z"/><path class="cls-3" d="M257.245,96.4045v-.27c0-7.245-5.175-9.4046-11.025-9.4046a29.6125,29.6125,0,0,0-6.795.8994v-.4951c0-5.8945.765-9.9892,7.695-9.9892a39.5941,39.5941,0,0,1,7.695.72c.09,0,.18.0449.27.0449a.7558.7558,0,0,0,.81-.81V75.3442c0-.54-.495-.72-1.035-.8545a34.4831,34.4831,0,0,0-7.74-.7656c-7.695,0-11.745,3.78-11.745,13.41V95.01c0,8.82,4.185,12.78,10.89,12.78,7.38,0,10.98-4.275,10.98-11.385Zm-4.05,0c0,6.075-2.745,8.055-6.93,8.055-4.365,0-6.84-2.115-6.84-9.45v-4.275a33.089,33.089,0,0,1,6.795-.81c3.555,0,6.975,1.35,6.975,6.21v.27Z"/></svg>