<svg id="Layer_1" data-name="Layer 1" xmlns="http://www.w3.org/2000/svg" viewBox="0 0 574.6572 57.4805"><defs><style>.cls-1{fill:#025ea8;}</style></defs><title>material</title><path class="cls-1" d="M34.5117,44.502q0,.9668-1.0254.9668H29.9414q-.791,0-.9961-.9082L25.02,30.7617H9.4922L5.6543,44.5605a1.1062,1.1062,0,0,1-.4395.6445,1.1092,1.1092,0,0,1-.6445.2637H1.0254A1.0332,1.0332,0,0,1,.3076,45.19.8907.8907,0,0,1,0,44.502a.9987.9987,0,0,1,.0586-.41L11.1621,5.0391a5.7474,5.7474,0,0,1,2.4316-3.56A7.09,7.09,0,0,1,17.2852.4688a7.6435,7.6435,0,0,1,2.4609.3955,5.3029,5.3029,0,0,1,2.1387,1.4062A6.4911,6.4911,0,0,1,23.35,4.98L34.4531,44.0918A1.0072,1.0072,0,0,1,34.5117,44.502ZM23.877,26.0156,18.4277,6.2988q-.293-1.0833-1.1426-1.084-.9082,0-1.2012,1.084L10.6348,26.0156Z"/><path class="cls-1" d="M65.5664,44.2676a1.1757,1.1757,0,0,1-1.1719,1.2012h-2.9a1.19,1.19,0,0,1-.82-.3516,1.1138,1.1138,0,0,1-.3809-.85V24.5215a13.3644,13.3644,0,0,0-.6738-4.7021,4.4179,4.4179,0,0,0-2.124-2.4756,8.4449,8.4449,0,0,0-3.7939-.7324,19.0608,19.0608,0,0,0-8.1152,2.3438V44.2676a1.1846,1.1846,0,0,1-.3369.85,1.11,1.11,0,0,1-.835.3516h-2.959a1.0929,1.0929,0,0,1-.791-.3516,1.1567,1.1567,0,0,1-.3516-.85V13.6816a1.1971,1.1971,0,0,1,.3223-.8643,1.087,1.087,0,0,1,.82-.3369h3.0176a1.0307,1.0307,0,0,1,.82.3369,1.2719,1.2719,0,0,1,.293.8643v1.1133a23.9837,23.9837,0,0,1,4.7754-2.08,16.5981,16.5981,0,0,1,4.7754-.6738q5.332,0,7.8809,3.1641t2.5488,9.3164Z"/><path class="cls-1" d="M101.0449,15.3516q0,.9668-1.084,1.1426l-2.1387.41a8.7957,8.7957,0,0,1,2.0215,6.1816v.4688q0,10.2832-13.33,10.2832A18.3781,18.3781,0,0,1,79.57,32.6367a2.1656,2.1656,0,0,0-1.4941,2.0215,1.6972,1.6972,0,0,0,.4248,1.23,3.0517,3.0517,0,0,0,1.4209.7031l8.9355,2.2852a54.4107,54.4107,0,0,1,6.0352,1.875,10.4493,10.4493,0,0,1,3.9551,2.6221A6.1266,6.1266,0,0,1,100.4,47.6953v.4688a8.0733,8.0733,0,0,1-3.252,6.9141q-3.252,2.4016-10.43,2.4023-6.9727,0-10.3857-2.5049A8.232,8.232,0,0,1,72.92,47.93v-.5273a9.1117,9.1117,0,0,1,1.0693-4.4092,10.0172,10.0172,0,0,1,2.71-3.2373L76.26,39.58a4.0734,4.0734,0,0,1-2.0654-1.875,5.8173,5.8173,0,0,1-.6885-2.7832v-.0586a5.1176,5.1176,0,0,1,.6445-2.4756,4.6876,4.6876,0,0,1,1.8164-1.86,9.09,9.09,0,0,1-2.7539-6.9727v-.4687a10.15,10.15,0,0,1,3.0908-7.6025q3.0908-3.0029,10.21-3.0029H99.668a1.4213,1.4213,0,0,1,.9521.3662,1.2,1.2,0,0,1,.4248.9521ZM95.0977,48.1641v-.4687A3.0242,3.0242,0,0,0,93.53,45.0146a21.8051,21.8051,0,0,0-5.7568-2.0068l-6.7676-1.7285a9.5467,9.5467,0,0,0-2.1826,2.5781,7.2934,7.2934,0,0,0-.7471,3.5449V47.93a5.233,5.233,0,0,0,.791,2.9883,5.0876,5.0876,0,0,0,2.7246,1.8164,16.6612,16.6612,0,0,0,5.127.6445q4.8625,0,6.6211-1.26A4.5338,4.5338,0,0,0,95.0977,48.1641Zm-.4687-24.6094v-.4687a6.18,6.18,0,0,0-1.8018-4.7021Q91.0254,16.67,86.5137,16.67q-4.57,0-6.3281,1.7432a6.2862,6.2862,0,0,0-1.7578,4.6729v.4688a5.94,5.94,0,0,0,1.7578,4.3506q1.7578,1.7732,6.3281,1.7725,4.511,0,6.3135-1.582A5.72,5.72,0,0,0,94.6289,23.5547Z"/><path class="cls-1" d="M132.5391,44.2676a1.2313,1.2313,0,0,1-.3076.8643,1.04,1.04,0,0,1-.8057.3369h-3.0176a1.0986,1.0986,0,0,1-.8057-.3369,1.1693,1.1693,0,0,1-.3369-.8643V43.125a22.3992,22.3992,0,0,1-4.7461,2.08,16.799,16.799,0,0,1-4.7754.6738q-10.459,0-10.459-12.48V13.6816a1.2,1.2,0,0,1,1.2012-1.2012h2.9a1.1494,1.1494,0,0,1,.85.3223,1.1891,1.1891,0,0,1,.3223.8789V33.3984a13.0766,13.0766,0,0,0,.7031,4.7461A4.4813,4.4813,0,0,0,115.4,40.62a8.4794,8.4794,0,0,0,3.7793.7178,18.7277,18.7277,0,0,0,8.0859-2.3437V13.6816a1.254,1.254,0,0,1,1.2012-1.2012h2.959a1.0413,1.0413,0,0,1,.8057.3369,1.2321,1.2321,0,0,1,.3076.8643Z"/><path class="cls-1" d="M146.6016,44.2676a1.2711,1.2711,0,0,1-.293.8643.9948.9948,0,0,1-.791.3369h-3.1055a1.0062,1.0062,0,0,1-.7764-.3369,1.2313,1.2313,0,0,1-.3076-.8643V1.4941a1.2389,1.2389,0,0,1,.2783-.791.9666.9666,0,0,1,.8057-.3516h3.1055a1.0162,1.0162,0,0,1,.791.3223,1.1758,1.1758,0,0,1,.293.82Z"/><path class="cls-1" d="M178.3594,44.2676a1.1155,1.1155,0,0,1-.3809.85,1.1912,1.1912,0,0,1-.82.3516H174.375a1.1243,1.1243,0,0,1-.82-.3516,1.1567,1.1567,0,0,1-.3516-.85V42.9492q-1.4941.85-3.0029,1.5234a16.7952,16.7952,0,0,1-3.1055,1.04,14.0591,14.0591,0,0,1-3.1494.3662,10.7774,10.7774,0,0,1-7.0312-2.2412q-2.7539-2.2412-2.7539-7.4561v-.7324a10.8391,10.8391,0,0,1,.791-4.3213,7.0774,7.0774,0,0,1,2.4316-3.0029,12.1134,12.1134,0,0,1,4.4678-1.7871,32.34,32.34,0,0,1,6.7822-.6152h4.4238V23.32q0-3.7793-1.4355-5.2734t-4.98-1.4941q-4.366,0-9.17.4688h-.293q-1.084,0-1.084-.9668v-2.08q0-.9668,1.26-1.1426a56.4376,56.4376,0,0,1,9.2871-.791q11.718,0,11.7188,11.2793ZM173.0566,39.17V29.502h-4.4238q-5.3027,0-7.2363,1.3037t-1.9336,4.585v.7324a7.1214,7.1214,0,0,0,.63,3.2813,3.5018,3.5018,0,0,0,1.8164,1.6846,8.2091,8.2091,0,0,0,3.0615.4834,12.9627,12.9627,0,0,0,3.8818-.5713A25.2377,25.2377,0,0,0,173.0566,39.17Z"/><path class="cls-1" d="M201.3281,15.5859q0,1.0261-1.26,1.0254a16.0043,16.0043,0,0,0-8.291,2.52V44.2676a1.1846,1.1846,0,0,1-.3369.85,1.11,1.11,0,0,1-.835.3516h-2.959a1.0929,1.0929,0,0,1-.791-.3516,1.1567,1.1567,0,0,1-.3516-.85V13.6816a1.1971,1.1971,0,0,1,.3223-.8643,1.087,1.087,0,0,1,.82-.3369h2.8125a1.0763,1.0763,0,0,1,.835.3369,1.2321,1.2321,0,0,1,.3076.8643v1.26a14.6682,14.6682,0,0,1,8.4668-2.9q1.259,0,1.26,1.084Z"/><path class="cls-1" d="M249.3164,11.2207a10.4833,10.4833,0,0,1-1.7432,6.0645,23.298,23.298,0,0,1-6.05,5.5078l-5.7715,3.8965a31.3415,31.3415,0,0,0-5.083,4.1162,11.3539,11.3539,0,0,0-2.5635,3.9551,13.8658,13.8658,0,0,0-.7324,4.7021v1.26h20.2148a1.3265,1.3265,0,0,1,.85.2783.9049.9049,0,0,1,.3516.7471v2.6367a.9586.9586,0,0,1-.3662.791,1.302,1.302,0,0,1-.835.293H223.77a1.1693,1.1693,0,0,1-.8643-.3369,1.0986,1.0986,0,0,1-.3369-.8057V39.4629a18.6365,18.6365,0,0,1,.542-4.541,16.3884,16.3884,0,0,1,1.6113-4.0723,18.128,18.128,0,0,1,2.8125-3.7061,25.511,25.511,0,0,1,4.2041-3.4424L237.8027,19.6a21.8853,21.8853,0,0,0,4.9951-4.1309,6.9171,6.9171,0,0,0,1.1865-4.248q0-3.3105-2.0947-4.7461T234.99,5.0391a79.5788,79.5788,0,0,0-10.6348.8789h-.2344q-.9668,0-.9668-1.0547V2.7539q0-.85,1.1426-1.084A42.9946,42.9946,0,0,1,234.99.4688q7.2949,0,10.8105,2.6074T249.3164,11.2207Z"/><path class="cls-1" d="M298.6523,44.502q0,.7625-.6152.85-1.0547.1758-4.7021.3516t-6.9873.1758a23.9063,23.9063,0,0,1-6.5039-.791,8.13,8.13,0,0,1-4.5264-3.2666q-1.7432-2.4756-1.7432-7.1045V2.08a1.1912,1.1912,0,0,1,.3516-.82,1.1155,1.1155,0,0,1,.85-.3809h3.0469a1.1575,1.1575,0,0,1,.85.3516,1.1575,1.1575,0,0,1,.3516.85V34.7168a10.351,10.351,0,0,0,.5273,3.7354,3.43,3.43,0,0,0,2.1094,1.9043,14.1568,14.1568,0,0,0,4.7461.6006h11.5723q.6738,0,.6738.7324Z"/><path class="cls-1" d="M309.873,5.9766a1.1437,1.1437,0,0,1-.3516.8643,1.1834,1.1834,0,0,1-.85.3369H305.625a1.2,1.2,0,0,1-1.2012-1.2012V1.2012a1.1834,1.1834,0,0,1,.3369-.85A1.1437,1.1437,0,0,1,305.625,0h3.0469a1.1891,1.1891,0,0,1,.8789.3223,1.1891,1.1891,0,0,1,.3223.8789Zm-.1172,38.291a1.1437,1.1437,0,0,1-.3516.8643,1.1834,1.1834,0,0,1-.85.3369h-2.8711a1.2,1.2,0,0,1-1.2012-1.2012V13.6816a1.1834,1.1834,0,0,1,.3369-.85,1.1437,1.1437,0,0,1,.8643-.3516h2.8711a1.1132,1.1132,0,0,1,1.2012,1.2012Z"/><path class="cls-1" d="M344.0332,13.4766a1.4076,1.4076,0,0,1-.0586.4395L335.8594,42.48a4.0558,4.0558,0,0,1-1.9043,2.6514,7.26,7.26,0,0,1-3.4863.7471,7.1706,7.1706,0,0,1-3.4717-.7471,4.2719,4.2719,0,0,1-1.9482-2.6514L316.9629,13.916a1.3933,1.3933,0,0,1-.0586-.4395,1.0251,1.0251,0,0,1,.249-.7324.9394.9394,0,0,1,.7178-.2637h3.2813q.791,0,1.1426,1.1426l6.9141,26.1328a3.85,3.85,0,0,0,.5274,1.377.8947.8947,0,0,0,1.4648,0,3.8685,3.8685,0,0,0,.5273-1.377l6.8848-26.1328q.3516-1.1426,1.1426-1.1426h3.3105a.95.95,0,0,1,.7031.2637A.9907.9907,0,0,1,344.0332,13.4766Z"/><path class="cls-1" d="M374.6772,29.3262q0,1.3184-1.1426,1.3184H353.437v.85q0,5.2148,2.0371,7.5t6.2832,2.2852q2.7832,0,5.67-.1758t5.0234-.498h.293q.9668,0,.9668.85v2.0215a1.4455,1.4455,0,0,1-.248.9229,1.7644,1.7644,0,0,1-.9531.4834q-2.4316.4688-5.082.7324t-5.67.2637a16.7,16.7,0,0,1-6.8262-1.3477,10.6814,10.6814,0,0,1-4.9219-4.541,16.7,16.7,0,0,1-1.875-8.4961v-5.42q0-6.5039,3.502-10.2686t9.8281-3.7646a14.3115,14.3115,0,0,1,7.252,1.7285,10.7682,10.7682,0,0,1,4.4824,4.9072,17.3657,17.3657,0,0,1,1.4785,7.3975Zm-5.3613-2.6953v-.5566a14.4477,14.4477,0,0,0-.8633-5.42,5.8167,5.8167,0,0,0-2.5937-3.0469,9.1572,9.1572,0,0,0-4.3945-.9375q-8.0273,0-8.0273,9.4043v.5566Z"/><path class="cls-1" d="M394.8921,29.0918a.9191.9191,0,0,1-.3369.7471,1.222,1.222,0,0,1-.8057.2783H381.7964q-1.1426,0-1.1426-1.0254V26.748a1.0423,1.0423,0,0,1,.3223-.7617,1.1112,1.1112,0,0,1,.82-.3223H393.75a1.1979,1.1979,0,0,1,.835.2783,1.0316,1.0316,0,0,1,.3076.8057Z"/><path class="cls-1" d="M428.3486,43.916q0,.9961-1.1719,1.2012a55.5577,55.5577,0,0,1-9.9609.7617,18.1789,18.1789,0,0,1-5.7568-.9375,13.8624,13.8624,0,0,1-5.0825-3.0176,14.6836,14.6836,0,0,1-3.6328-5.7275,25.0826,25.0826,0,0,1-1.377-8.833v-8.35q0-6.8555,2.3-11.0156a13.2856,13.2856,0,0,1,5.8442-5.8447A17.72,17.72,0,0,1,417.2158.4688a62.4463,62.4463,0,0,1,10.0781.9668q.9375.1172.9375.7617V5.2734q0,.6445-.7031.6445h-.1758q-6.5039-.5273-10.0781-.5273a9.6477,9.6477,0,0,0-7.6465,3.208q-2.8118,3.208-2.812,10.415v8.35q0,7.1484,2.8267,10.3711a9.6358,9.6358,0,0,0,7.6318,3.2227q4.1309,0,9.9023-.4687h.2344a.8418.8418,0,0,1,.9375.9668Z"/><path class="cls-1" d="M459.5791,31.26a18.212,18.212,0,0,1-1.5234,7.7344,11.3236,11.3236,0,0,1-4.541,5.083,14.0427,14.0427,0,0,1-7.3242,1.8018q-6.4453,0-9.8877-3.94T432.86,31.26v-4.57q0-6.7676,3.4424-10.708t9.8877-3.94a15.129,15.129,0,0,1,5.8154,1.0254,11.2372,11.2372,0,0,1,4.1748,2.9443,12.5206,12.5206,0,0,1,2.5488,4.6436,20.2088,20.2088,0,0,1,.85,6.0352Zm-5.2734,0v-4.57q0-4.7461-1.9922-7.3828T446.19,16.67a7.099,7.099,0,0,0-6.0352,2.6221q-1.9922,2.6221-1.9922,7.3975v4.57q0,10.02,8.0273,10.02,4.1016,0,6.1084-2.6074T454.3057,31.26Z"/><path class="cls-1" d="M490.9561,43.4766a1.49,1.49,0,0,1-.249.9668,1.7756,1.7756,0,0,1-1.0107.4395,59.46,59.46,0,0,1-11.0449.9961,13.7718,13.7718,0,0,1-7.31-1.8018,10.8023,10.8023,0,0,1-4.3652-5.1562,20.0586,20.0586,0,0,1-1.4209-7.8662V26.748a22.2324,22.2324,0,0,1,.8057-6.3135,11.975,11.975,0,0,1,2.4609-4.585,10.5532,10.5532,0,0,1,4.1016-2.8418,15.5316,15.5316,0,0,1,5.7275-.9668q1.8164,0,3.6328.1465a27.58,27.58,0,0,1,3.3691.4688V1.4941a1.1256,1.1256,0,0,1,.3223-.8057,1.0878,1.0878,0,0,1,.82-.3369h3.0762a1.0415,1.0415,0,0,1,.7617.3223,1.112,1.112,0,0,1,.3223.82Zm-5.3027-2.5781V17.08a21.3174,21.3174,0,0,0-3.0762-.3369q-1.6992-.0725-3.9258-.0732a8.1744,8.1744,0,0,0-4.57,1.1572,6.2249,6.2249,0,0,0-2.49,3.3691,17.91,17.91,0,0,0-.7324,5.5518v4.3066q0,5.157,1.7578,7.69t6.0352,2.5342Q481.2881,41.2793,485.6533,40.8984Z"/><path class="cls-1" d="M505.165,5.9766a1.1437,1.1437,0,0,1-.3516.8643,1.1834,1.1834,0,0,1-.85.3369H500.917a1.2,1.2,0,0,1-1.2012-1.2012V1.2012a1.1834,1.1834,0,0,1,.3369-.85A1.1444,1.1444,0,0,1,500.917,0h3.0469a1.1876,1.1876,0,0,1,.8789.3223,1.1891,1.1891,0,0,1,.3223.8789Zm-.1172,38.291a1.1437,1.1437,0,0,1-.3516.8643,1.1834,1.1834,0,0,1-.85.3369h-2.8711a1.2,1.2,0,0,1-1.2012-1.2012V13.6816a1.1834,1.1834,0,0,1,.3369-.85,1.1444,1.1444,0,0,1,.8643-.3516h2.8711a1.1132,1.1132,0,0,1,1.2012,1.2012Z"/><path class="cls-1" d="M539.1787,44.2676a1.1757,1.1757,0,0,1-1.1719,1.2012h-2.9a1.1912,1.1912,0,0,1-.82-.3516,1.1138,1.1138,0,0,1-.3809-.85V24.5215a13.3644,13.3644,0,0,0-.6738-4.7021,4.4161,4.4161,0,0,0-2.124-2.4756,8.4449,8.4449,0,0,0-3.7939-.7324,19.0608,19.0608,0,0,0-8.1152,2.3438V44.2676a1.1825,1.1825,0,0,1-.3369.85,1.11,1.11,0,0,1-.835.3516h-2.959a1.0929,1.0929,0,0,1-.791-.3516,1.1567,1.1567,0,0,1-.3516-.85V13.6816a1.1991,1.1991,0,0,1,.3223-.8643,1.0878,1.0878,0,0,1,.82-.3369h3.0176a1.0307,1.0307,0,0,1,.82.3369,1.27,1.27,0,0,1,.293.8643v1.1133a23.9958,23.9958,0,0,1,4.7754-2.08,16.6,16.6,0,0,1,4.7754-.6738q5.332,0,7.8809,3.1641t2.5488,9.3164Z"/><path class="cls-1" d="M574.6572,15.3516q0,.9668-1.084,1.1426l-2.1387.41a8.7957,8.7957,0,0,1,2.0215,6.1816v.4688q0,10.2832-13.33,10.2832a18.3781,18.3781,0,0,1-6.9434-1.2012,2.1656,2.1656,0,0,0-1.4941,2.0215,1.6972,1.6972,0,0,0,.4248,1.23,3.0542,3.0542,0,0,0,1.4209.7031L562.47,38.877a54.3778,54.3778,0,0,1,6.0352,1.875A10.4417,10.4417,0,0,1,572.46,43.374a6.1266,6.1266,0,0,1,1.5527,4.3213v.4688a8.0733,8.0733,0,0,1-3.252,6.9141q-3.252,2.4016-10.43,2.4023-6.9727,0-10.3857-2.5049a8.232,8.232,0,0,1-3.4131-7.0459v-.5273a9.1172,9.1172,0,0,1,1.0693-4.4092,10.0233,10.0233,0,0,1,2.71-3.2373l-.4395-.1758a4.0773,4.0773,0,0,1-2.0654-1.875,5.8173,5.8173,0,0,1-.6885-2.7832v-.0586a5.1176,5.1176,0,0,1,.6445-2.4756,4.6908,4.6908,0,0,1,1.8164-1.86,9.09,9.09,0,0,1-2.7539-6.9727v-.4687a10.1514,10.1514,0,0,1,3.0908-7.6025q3.0908-3.0029,10.21-3.0029H573.28a1.4213,1.4213,0,0,1,.9521.3662,1.1985,1.1985,0,0,1,.4248.9521ZM568.71,48.1641v-.4687a3.0233,3.0233,0,0,0-1.5674-2.6807,21.8051,21.8051,0,0,0-5.7568-2.0068l-6.7676-1.7285a9.5467,9.5467,0,0,0-2.1826,2.5781,7.2934,7.2934,0,0,0-.7471,3.5449V47.93a5.233,5.233,0,0,0,.791,2.9883,5.0876,5.0876,0,0,0,2.7246,1.8164,16.6612,16.6612,0,0,0,5.127.6445q4.8633,0,6.6211-1.26A4.5338,4.5338,0,0,0,568.71,48.1641Zm-.4687-24.6094v-.4687a6.18,6.18,0,0,0-1.8018-4.7021Q564.6377,16.67,560.126,16.67q-4.57,0-6.3281,1.7432a6.2862,6.2862,0,0,0-1.7578,4.6729v.4688a5.94,5.94,0,0,0,1.7578,4.3506q1.7578,1.7732,6.3281,1.7725,4.5117,0,6.3135-1.582A5.72,5.72,0,0,0,568.2412,23.5547Z"/></svg>