<svg id="Layer_1" data-name="Layer 1" xmlns="http://www.w3.org/2000/svg" viewBox="0 0 386.6059 185.4792"><defs><style>.cls-1{fill:#08b0e6;}.cls-2{fill:#9fdcf4;}.cls-3{fill:#085da8;}.cls-4{fill:#0ab0e6;}.cls-5{fill:#a0dcf4;}.cls-6{fill:#095ea8;}.cls-7{fill:#025ea8;}</style></defs><title>material</title><path class="cls-1" d="M.0609,132.8823c0-12.2082-.028-12.4552,12.1853-13.8468,9.3323-1.0633,18.7445-1.4391,28.1258-2.0492,10.5207-.6842,21.0429-1.3627,31.5719-1.8941,5.0154-.2532,6.0978.9047,6.162,5.8352.041,3.1445-.1335,6.2979.0407,9.4332.24,4.3176-2.0361,6.4025-5.9327,6.9171-16.0853,2.1243-32.1841,4.1452-48.2758,6.221-5.0807.6554-10.1622,1.3113-15.23,2.0608-6.3987.9464-8.63-.957-8.6471-7.5307C.0572,136.3133.0609,134.5978.0609,132.8823Z"/><path class="cls-1" d="M6.515,105.7631C1.95,105.5881.1371,103.6384.0744,99.0547.0157,94.7691.098,90.4816.0526,86.1957.01,82.1421,2.1368,80.14,5.99,79.8374a51.4676,51.4676,0,0,1,5.5568-.0265q30.1239.9038,60.2466,1.8437c4.8359.1517,6.2513,1.6382,6.3125,6.5632.0391,3.1429.0487,6.2874-.0036,9.43-.0747,4.4873-1.6321,6.0853-6.2094,6.2715"/><path class="cls-2" d="M78.0156,60.2119c0,10.246-1.4732,11.3178-11.6528,10.1977-10.0155-1.102-20.085-1.7359-30.14-2.4472-9.64-.682-19.297-1.1316-28.9369-1.8181C2.3581,65.7933.1207,63.2707.0673,58.38c-.0453-4.146-.0734-8.2943.01-12.4391C.16,41.888,3.0011,39.228,7.011,39.7271c10.839,1.3491,21.6582,2.8593,32.4815,4.3339,9.837,1.34,19.6526,2.8551,29.5083,4.0364,8.3753,1.0039,9.0141,1.5239,9.0148,9.97Q78.0157,59.14,78.0156,60.2119Z"/><path class="cls-2" d="M.0576,11.9749c0-1.7147-.0089-3.43.0017-5.1442C.095,1.0282,2.3992-.9106,8.1.3837Q39.6645,7.55,71.1949,14.8685c5.8478,1.36,6.81,2.8046,6.82,8.9739.0047,3.0008-.11,6.0066.0281,9.001.1461,3.17-1.2521,4.3727-4.3385,4.2477-6.2732-.254-12.3548-1.7655-18.5127-2.7331q-22.4763-3.5319-44.88-7.5235C.7914,25.1433.0576,24.0641.0575,14.547Q.0575,13.261.0576,11.9749Z"/><path class="cls-3" d="M.0876,173.4139c-.3453-11.1917-.3178-13.1354,13.0445-15.2995,18.99-3.0755,37.9669-6.2384,56.9486-9.3677,6.8519-1.13,8.058-.1483,7.9921,6.8727-.12,12.8115,2.1788,13.1553-13.0193,16.45-18.0977,3.9237-36.0961,8.306-54.1453,12.4556C1.4048,186.71.0877,185.6436.0876,175.9872Q.0876,174.7005.0876,173.4139Z"/><path class="cls-1" d="M89.89,29.6546c0-10.6689-.0074-10.6375,10.4819-8.178,11.2254,2.6321,22.4371,5.337,33.7162,7.7184,4.1885.8843,5.8454,3.0537,5.5585,7.1373-.1,1.4227-.0154,2.8583-.0159,4.2881-.0021,7.3217-.5682,7.7423-7.927,6.4769q-17.0411-2.9305-34.1044-5.73c-6.8659-1.1188-7.6961-1.9722-7.7091-8.71C89.8883,31.6562,89.89,30.6554,89.89,29.6546Z"/><path class="cls-1" d="M89.8924,61.2255c-.0025-10.5674.38-10.7238,10.9261-9.118,11.2386,1.7112,22.5289,3.0958,33.8148,4.4726,3.48.4246,5.1111,2.05,5.011,5.5562-.0774,2.71-.0624,5.4254-.0049,8.1366.07,3.2976-1.5283,4.6828-4.7474,4.4675-13.3425-.8926-26.691-1.7015-40.0271-2.681-3.2717-.24-5.17-2.1373-4.9852-5.6954C89.9682,64.6555,89.8949,62.9386,89.8924,61.2255Z"/><path class="cls-3" d="M96.9837,103c-6.1387.0557-7.0464-.7646-7.0644-6.7292-.0086-2.8586.0546-5.7185-.0142-8.5754-.0807-3.3542,1.4722-5.2184,4.8229-5.1164,13.6843.4168,27.366.923,41.048,1.4134a3.5689,3.5689,0,0,1,3.7655,3.8087c.1107,3.2834.1043,6.5754.0095,9.86-.0821,2.8436-1.8146,3.978-4.5137,3.9712"/><path class="cls-3" d="M89.9178,124.2587c0-10.42.0051-10.3341,10.6752-10.9716,10.7908-.6447,21.5723-1.4537,32.3535-2.2506,5.8335-.4312,6.6319.2693,6.6513,6.2826.036,11.1727.0276,11.1011-10.8739,12.3869-9.4587,1.1157-18.9,2.3865-28.3407,3.6466C89.914,134.75,89.9178,134.7784,89.9178,124.2587Z"/><path class="cls-3" d="M89.9186,155.6449c.0008-1.5686.0612-3.14-.0116-4.7053-.158-3.3967,1.4356-5.51,4.712-6.0636,13.5947-2.2965,27.2044-4.5039,40.8118-6.7238,2.6622-.4343,4.0716.7451,4.1564,3.4656.0089.285.01.57.0088.8555-.0473,13.537,1.2957,12.2452-11.55,15.1087-10.2641,2.2881-20.4959,4.7211-30.7435,7.0838-6.5947,1.52-7.38.8759-7.3849-6.0262Q89.9167,157.1423,89.9186,155.6449Z"/><path class="cls-4" d="M157.6957,101.2412c-10.38.2046-10.38.2046-10.3773-9.5107.0023-7.5751.0038-7.63,7.73-7.4248,7.4058.1966,14.8066.5877,22.2127.7606,2.947.0688,4.5075,1.0974,4.4764,4.2842-.1207,12.3355,1.2454,10.9666-10.4426,11.2677C166.4546,100.743,161.6194,101.0566,157.6957,101.2412Z"/><path class="cls-4" d="M147.3325,66.5691c0-1.426-.0325-2.8528.007-4.2777.0734-2.6467,1.4124-3.9764,4.0892-3.636q13.0967,1.6659,26.1834,3.4109c2.5674.34,3.9714,1.5633,4.1444,4.4451.673,11.2067.4172,11.548-10.81,10.6935-5.8065-.4419-11.6059-.978-17.4113-1.4356-5.8454-.4607-6.184-.8-6.2157-6.6335-.0047-.8556-.0006-1.7112-.0006-2.5668Z"/><path class="cls-5" d="M147.3615,40.8118c.0008-1.1407.02-2.2817-.0029-3.4219-.0728-3.5618,1.2784-4.82,5.0091-3.8892,8.1043,2.0227,16.2876,3.733,24.457,5.4855,3.4508.74,4.925,2.5272,4.8911,6.2466-.0912,9.9806.06,9.9578-9.6691,8.2382q-7.942-1.4038-15.9122-2.6468C147.3642,49.4446,147.3606,49.4675,147.3615,40.8118Z"/><path class="cls-6" d="M147.4033,118.7355c0-1.4279-.0717-2.86.0153-4.2829.169-2.7643,1.3057-4.428,4.4418-4.5857,8.25-.4149,16.4973-.9529,24.727-1.66,3.6375-.3127,5.27.7456,5.1536,4.6438-.2948,9.8414,1.457,10.0071-9.6543,11.1337-6.0879.6173-12.1362,1.6178-18.2137,2.3506-6.3442.7649-6.4742.6023-6.4844-5.8856q-.0013-.8568,0-1.7136Z"/><path class="cls-6" d="M147.3889,144.38c.0007-8.3106.1113-8.3771,8.2832-9.6215,7.2982-1.1113,14.5967-2.2449,21.8534-3.5939,3.1113-.5784,4.063.5238,4.2028,3.4766.5012,10.5848.5583,10.5709-9.7768,12.9119-6.09,1.38-12.1723,2.7973-18.2564,4.2049-5.5974,1.295-6.2791.7785-6.3055-4.8146C147.3854,146.0893,147.3889,145.2348,147.3889,144.38Z"/><path class="cls-7" d="M222.7192,111.6427a10.4833,10.4833,0,0,1-1.7432,6.0645,23.298,23.298,0,0,1-6.05,5.5078l-5.7715,3.8965a31.3677,31.3677,0,0,0-5.083,4.1162,11.3539,11.3539,0,0,0-2.5635,3.9551,13.87,13.87,0,0,0-.7324,4.7021v1.26h20.2148a1.3265,1.3265,0,0,1,.85.2783.9062.9062,0,0,1,.3516.7471v2.6367a.9573.9573,0,0,1-.3662.791,1.302,1.302,0,0,1-.835.293H197.1723a1.1693,1.1693,0,0,1-.8643-.3369,1.0978,1.0978,0,0,1-.3369-.8057v-4.8633a18.6394,18.6394,0,0,1,.542-4.541,16.3959,16.3959,0,0,1,1.6113-4.0723,18.128,18.128,0,0,1,2.8125-3.7061,25.5359,25.5359,0,0,1,4.2041-3.4424l6.0645-4.1016a21.8853,21.8853,0,0,0,4.9951-4.1309,6.9171,6.9171,0,0,0,1.1865-4.248q0-3.3105-2.0947-4.7461t-6.8994-1.4355a79.5788,79.5788,0,0,0-10.6348.8789h-.2344q-.9668,0-.9668-1.0547v-2.1094q0-.85,1.1426-1.084a42.9946,42.9946,0,0,1,10.6934-1.2012q7.2949,0,10.8105,2.6074T222.7192,111.6427Z"/><path class="cls-7" d="M260.3364,127.6388q0,9.668-3.7939,14.165t-10.8838,4.4971a16.8162,16.8162,0,0,1-6.1377-1.0547,11.4344,11.4344,0,0,1-4.6289-3.3105,15.5872,15.5872,0,0,1-2.959-5.83,30.497,30.497,0,0,1-1.04-8.4668v-8.0859q0-9.6387,3.8379-14.15t10.9277-4.5117q7.09,0,10.8838,4.4971t3.7939,14.165Zm-5.4492,0v-8.0859a24.6983,24.6983,0,0,0-1.0986-8.0127,8.9073,8.9073,0,0,0-3.1787-4.585,9.2813,9.2813,0,0,0-9.917,0,8.8694,8.8694,0,0,0-3.1934,4.585,24.6983,24.6983,0,0,0-1.0986,8.0127v8.0859a24.796,24.796,0,0,0,1.0986,8.042,8.8613,8.8613,0,0,0,3.1934,4.585,9.2813,9.2813,0,0,0,9.917,0,8.8991,8.8991,0,0,0,3.1787-4.585A24.796,24.796,0,0,0,254.8871,127.6388Z"/><path class="cls-7" d="M286.1469,144.69a1.27,1.27,0,0,1-.293.8643.9948.9948,0,0,1-.791.3369h-3.3105a.9441.9441,0,0,1-.7617-.3516,1.2818,1.2818,0,0,1-.293-.85V106.9552l-7.7637,3.3691a2.1064,2.1064,0,0,1-.7617.1758c-.3711,0-.5566-.2236-.5566-.6738v-3.0469q0-.4673.6152-.791l9.0527-4.3066a2.5916,2.5916,0,0,1,1.26-.3809h2.4609a1.15,1.15,0,0,1,1.1426,1.1426Z"/><path class="cls-7" d="M332.8163,131.1252a18.8727,18.8727,0,0,1-1.625,8.2031,11.33,11.33,0,0,1-4.8931,5.1855,18.9049,18.9049,0,0,1-14.209.7471,11.6639,11.6639,0,0,1-4.57-3.1641,14.107,14.107,0,0,1-2.8711-5.3174,25.61,25.61,0,0,1-.9814-7.5V118.7619A25.7179,25.7179,0,0,1,305.41,108.464a11.4621,11.4621,0,0,1,5.2295-5.7568,18.6311,18.6311,0,0,1,8.6719-1.8164,47.1707,47.1707,0,0,1,10.3413,1.0254,3.2734,3.2734,0,0,1,1.041.41.8307.8307,0,0,1,.3359.7324v2.3438a.9454.9454,0,0,1-1.084,1.0547c-.0586-.0186-.1113-.0332-.16-.0439a1.0156,1.0156,0,0,0-.1914-.0146,54.8581,54.8581,0,0,0-10.2827-.9375q-4.3359,0-6.6064,1.6113a7.386,7.386,0,0,0-2.959,4.4092,31.4028,31.4028,0,0,0-.6885,7.28v.6738a42.021,42.021,0,0,1,9.0527-1.2012,22.2866,22.2866,0,0,1,7.4854,1.1719,10.5968,10.5968,0,0,1,5.2583,3.97,12.6331,12.6331,0,0,1,1.9629,7.3975Zm-5.39,0v-.3516a8.4576,8.4576,0,0,0-1.2744-4.8926,6.9327,6.9327,0,0,0-3.3691-2.6221,13.3879,13.3879,0,0,0-4.6729-.7764,37.9679,37.9679,0,0,0-4.7021.3369,41.2814,41.2814,0,0,0-4.3506.7471v5.7129a22.0415,22.0415,0,0,0,1.04,7.5586,7.16,7.16,0,0,0,3.0469,3.8965,10.0373,10.0373,0,0,0,5.0244,1.1426,11.0338,11.0338,0,0,0,4.98-1.0254,6.8952,6.8952,0,0,0,3.1641-3.4424A15.1252,15.1252,0,0,0,327.4262,131.1252Z"/><path class="cls-7" d="M201.45,81.8439a1.262,1.262,0,0,1-.3076.835.9689.9689,0,0,1-.7764.3662h-3.3105a1.0345,1.0345,0,0,1-.7471-.3369,1.1685,1.1685,0,0,1-.3369-.8643V39.5978a1.1388,1.1388,0,0,1,.3223-.791,1.001,1.001,0,0,1,.7617-.3516h3.3105a1.0423,1.0423,0,0,1,.7617.3223,1.1127,1.1127,0,0,1,.3223.82Z"/><path class="cls-7" d="M240.0336,42.1759q0,.9668-1.1426.9668H227.1723V81.8439a1.27,1.27,0,0,1-.293.8643.9626.9626,0,0,1-.7617.3369h-3.3105a1.0062,1.0062,0,0,1-.7764-.3369,1.23,1.23,0,0,1-.3076-.8643V43.1427H210.0336q-1.2019,0-1.2012-.9668V39.5392a1.0362,1.0362,0,0,1,.3369-.7471,1.1731,1.1731,0,0,1,.8643-.3369H238.891a1.1546,1.1546,0,0,1,.8057.3076,1.0093,1.0093,0,0,1,.3369.7764Z"/><path class="cls-7" d="M259.2231,66.6681a.9205.9205,0,0,1-.3369.7471,1.22,1.22,0,0,1-.8057.2783H246.1274q-1.1426,0-1.1426-1.0254V64.3244a1.0412,1.0412,0,0,1,.3223-.7617,1.11,1.11,0,0,1,.82-.3223H258.08a1.1979,1.1979,0,0,1,.835.2783,1.0323,1.0323,0,0,1,.3076.8057Z"/><path class="cls-7" d="M295.4047,42.1759q0,.9668-1.1426.9668H282.5434V81.8439a1.27,1.27,0,0,1-.293.8643.9626.9626,0,0,1-.7617.3369h-3.3105a1.0062,1.0062,0,0,1-.7764-.3369,1.23,1.23,0,0,1-.3076-.8643V43.1427H265.4047q-1.2019,0-1.2012-.9668V39.5392a1.0362,1.0362,0,0,1,.3369-.7471,1.1731,1.1731,0,0,1,.8643-.3369h28.8574a1.1546,1.1546,0,0,1,.8057.3076,1.0093,1.0093,0,0,1,.3369.7764Z"/><path class="cls-7" d="M319.4574,81.8439a1.1148,1.1148,0,0,1-.3809.85,1.1912,1.1912,0,0,1-.82.3516h-2.7832a1.1243,1.1243,0,0,1-.82-.3516,1.156,1.156,0,0,1-.3516-.85V80.5255q-1.4941.8511-3.0029,1.5234a16.759,16.759,0,0,1-3.1055,1.04,14.0591,14.0591,0,0,1-3.1494.3662,10.7774,10.7774,0,0,1-7.0312-2.2412q-2.7539-2.2412-2.7539-7.4561v-.7324a10.8408,10.8408,0,0,1,.791-4.3213,7.08,7.08,0,0,1,2.4316-3.0029,12.1218,12.1218,0,0,1,4.4678-1.7871,32.34,32.34,0,0,1,6.7822-.6152h4.4238V60.8966q0-3.7793-1.4355-5.2734t-4.98-1.4941q-4.366,0-9.17.4688h-.293q-1.084,0-1.084-.9668v-2.08q0-.9668,1.26-1.1426a56.4376,56.4376,0,0,1,9.2871-.791q11.718,0,11.7188,11.2793Zm-5.3027-5.0977v-9.668h-4.4238q-5.3027,0-7.2363,1.3037t-1.9336,4.585v.7324a7.12,7.12,0,0,0,.63,3.2813,3.5,3.5,0,0,0,1.8164,1.6846,8.2091,8.2091,0,0,0,3.0615.4834,12.9627,12.9627,0,0,0,3.8818-.5713A25.2377,25.2377,0,0,0,314.1547,76.7462Z"/><path class="cls-7" d="M354.9067,52.9279q0,.9668-1.084,1.1426l-2.1387.41a8.7965,8.7965,0,0,1,2.0215,6.1816v.4688q0,10.2832-13.33,10.2832a18.3686,18.3686,0,0,1-6.9434-1.2012,2.1665,2.1665,0,0,0-1.4941,2.0215,1.6972,1.6972,0,0,0,.4248,1.23,3.0517,3.0517,0,0,0,1.4209.7031l8.9355,2.2852a54.5151,54.5151,0,0,1,6.0352,1.875,10.455,10.455,0,0,1,3.9551,2.6221,6.1275,6.1275,0,0,1,1.5527,4.3213V85.74a8.0727,8.0727,0,0,1-3.252,6.9141q-3.2519,2.4023-10.43,2.4023-6.9727,0-10.3857-2.5049a8.232,8.232,0,0,1-3.4131-7.0459v-.5273a9.1131,9.1131,0,0,1,1.0693-4.4092,10.0172,10.0172,0,0,1,2.71-3.2373l-.4395-.1758a4.0713,4.0713,0,0,1-2.0654-1.875,5.8173,5.8173,0,0,1-.6885-2.7832V72.44a5.1176,5.1176,0,0,1,.6445-2.4756,4.6907,4.6907,0,0,1,1.8164-1.86,9.09,9.09,0,0,1-2.7539-6.9727v-.4687a10.1511,10.1511,0,0,1,3.0908-7.6025q3.0908-3.0029,10.21-3.0029H353.53a1.4213,1.4213,0,0,1,.9521.3662,1.2007,1.2007,0,0,1,.4248.9521ZM348.9594,85.74v-.4687a3.0242,3.0242,0,0,0-1.5674-2.6807,21.8231,21.8231,0,0,0-5.7568-2.0068l-6.7676-1.7285a9.5541,9.5541,0,0,0-2.1826,2.5781,7.2934,7.2934,0,0,0-.7471,3.5449v.5273a5.233,5.233,0,0,0,.791,2.9883,5.0849,5.0849,0,0,0,2.7246,1.8164,16.6463,16.6463,0,0,0,5.127.6445q4.8625,0,6.6211-1.26A4.5338,4.5338,0,0,0,348.9594,85.74Zm-.4687-24.6094v-.4687a6.18,6.18,0,0,0-1.8018-4.7021q-1.8018-1.7139-6.3135-1.7139-4.57,0-6.3281,1.7432a6.287,6.287,0,0,0-1.7578,4.6729v.4688a5.94,5.94,0,0,0,1.7578,4.3506q1.7578,1.7739,6.3281,1.7725,4.511,0,6.3135-1.582A5.72,5.72,0,0,0,348.4907,61.131Z"/><path class="cls-7" d="M386.6059,66.9025q0,1.3184-1.1426,1.3184H365.3657v.85q0,5.2148,2.0361,7.5t6.2842,2.2852q2.7832,0,5.6689-.1758t5.0244-.498h.293q.9668,0,.9668.85v2.0215a1.4483,1.4483,0,0,1-.249.9229,1.7608,1.7608,0,0,1-.9521.4834q-2.4324.4688-5.083.7324t-5.6689.2637a16.7,16.7,0,0,1-6.8262-1.3477,10.6742,10.6742,0,0,1-4.9219-4.541,16.699,16.699,0,0,1-1.875-8.4961v-5.42q0-6.5039,3.501-10.2686t9.8291-3.7646a14.31,14.31,0,0,1,7.251,1.7285,10.7706,10.7706,0,0,1,4.4824,4.9072,17.3746,17.3746,0,0,1,1.4795,7.3975Zm-5.3613-2.6953v-.5566a14.4559,14.4559,0,0,0-.8643-5.42,5.817,5.817,0,0,0-2.5928-3.0469,9.16,9.16,0,0,0-4.3945-.9375q-8.0273,0-8.0273,9.4043v.5566Z"/></svg>