<svg id="Layer_1" data-name="Layer 1" xmlns="http://www.w3.org/2000/svg" viewBox="0 0 615.3223 108.8724"><defs><style>.cls-1{fill:#025ea8;}</style></defs><title>material</title><path class="cls-1" d="M30.3516,27.4219q0,9.4043-4.8047,14.0332T12.1582,46.084q-2.2852,0-4.7021-.1025t-3.6768-.2051q-1.26-.1025-2.52-.2783A1.3359,1.3359,0,0,1,0,44.0039V2.7832A1.3946,1.3946,0,0,1,1.26,1.26q1.259-.1758,2.52-.2783T7.4561.7764Q9.873.6738,12.1582.6738A21.8894,21.8894,0,0,1,21.9141,2.666a13.8288,13.8288,0,0,1,6.24,6.1963,22.4475,22.4475,0,0,1,2.1973,10.4736Zm-5.4492,0V19.3359a17.9506,17.9506,0,0,0-1.626-8.291A9.4173,9.4173,0,0,0,18.8232,6.65a15.9459,15.9459,0,0,0-6.665-1.2891q-3.6628,0-6.65.1758V41.2793q1.9336.1465,6.65.1465,5.9766,0,9.36-3.1934T24.9023,27.4219Z"/><path class="cls-1" d="M43.916,6.1816a1.1444,1.1444,0,0,1-.3516.8643,1.1834,1.1834,0,0,1-.85.3369H39.668a1.2,1.2,0,0,1-1.2012-1.2012V1.4063a1.1834,1.1834,0,0,1,.3369-.85A1.1437,1.1437,0,0,1,39.668.2051h3.0469a1.1891,1.1891,0,0,1,.8789.3223,1.1876,1.1876,0,0,1,.3223.8789Zm-.1172,38.291a1.1444,1.1444,0,0,1-.3516.8643,1.1834,1.1834,0,0,1-.85.3369H39.7266a1.2,1.2,0,0,1-1.2012-1.2012V13.8867a1.1834,1.1834,0,0,1,.3369-.85,1.1437,1.1437,0,0,1,.8643-.3516h2.8711a1.1132,1.1132,0,0,1,1.2012,1.2012Z"/><path class="cls-1" d="M78.1348,29.5313q0,1.3184-1.1426,1.3184H56.8945v.85q0,5.2148,2.0361,7.5t6.2842,2.2852q2.7832,0,5.6689-.1758t5.0244-.498h.293q.9668,0,.9668.85v2.0215a1.4483,1.4483,0,0,1-.249.9229,1.7608,1.7608,0,0,1-.9521.4834q-2.4324.4688-5.083.7324t-5.6689.2637a16.7,16.7,0,0,1-6.8262-1.3477,10.6793,10.6793,0,0,1-4.9219-4.541,16.7015,16.7015,0,0,1-1.875-8.4961v-5.42q0-6.5039,3.501-10.2686t9.8291-3.7646a14.31,14.31,0,0,1,7.251,1.7285,10.7658,10.7658,0,0,1,4.4824,4.9072,17.3715,17.3715,0,0,1,1.4795,7.3975Zm-5.3613-2.6953v-.5566a14.4559,14.4559,0,0,0-.8643-5.42,5.8132,5.8132,0,0,0-2.5928-3.0469,9.16,9.16,0,0,0-4.3945-.9375q-8.0273,0-8.0273,9.4043v.5566Z"/><path class="cls-1" d="M106.8164,47.9a11.8983,11.8983,0,0,1-.5273,3.75,6.5082,6.5082,0,0,1-1.67,2.6807,7.0148,7.0148,0,0,1-2.8857,1.626,14.7685,14.7685,0,0,1-4.2334.5273,10.684,10.684,0,0,1-1.8311-.19,7.8078,7.8078,0,0,1-1.333-.3076.6472.6472,0,0,1-.3809-.6445V53.1152a.9036.9036,0,0,1,.3516-.7471,1.3265,1.3265,0,0,1,.85-.2783H97.5q2.2852,0,3.0615-.9229a5.181,5.181,0,0,0,.7764-3.2666V2.2266a1.0929,1.0929,0,0,1,.3516-.791,1.0929,1.0929,0,0,1,.791-.3516h3.1934a1.0929,1.0929,0,0,1,.791.3516,1.0929,1.0929,0,0,1,.3516.791Z"/><path class="cls-1" d="M138.5449,44.4727a1.1162,1.1162,0,0,1-.3809.85,1.1912,1.1912,0,0,1-.82.3516h-2.7832a1.1243,1.1243,0,0,1-.82-.3516,1.1575,1.1575,0,0,1-.3516-.85V43.1543q-1.4941.85-3.0029,1.5234a16.8316,16.8316,0,0,1-3.1055,1.04,14.0591,14.0591,0,0,1-3.1494.3662A10.7774,10.7774,0,0,1,117.1,43.8428q-2.7539-2.2412-2.7539-7.4561v-.7324a10.8375,10.8375,0,0,1,.791-4.3213,7.0744,7.0744,0,0,1,2.4316-3.0029,12.105,12.105,0,0,1,4.4678-1.7871,32.34,32.34,0,0,1,6.7822-.6152h4.4238V23.5254q0-3.7793-1.4355-5.2734t-4.98-1.4941q-4.366,0-9.17.4688h-.293q-1.084,0-1.084-.9668V14.18q0-.9668,1.26-1.1426a56.4376,56.4376,0,0,1,9.2871-.791q11.718,0,11.7187,11.2793Zm-5.3027-5.0977V29.707h-4.4238q-5.3027,0-7.2363,1.3037t-1.9336,4.585v.7324a7.1228,7.1228,0,0,0,.63,3.2813,3.5037,3.5037,0,0,0,1.8164,1.6846,8.2091,8.2091,0,0,0,3.0615.4834,12.9627,12.9627,0,0,0,3.8818-.5713A25.2377,25.2377,0,0,0,133.2422,39.375Z"/><path class="cls-1" d="M171.9434,44.4727a1.1757,1.1757,0,0,1-1.1719,1.2012h-2.9a1.19,1.19,0,0,1-.82-.3516,1.1146,1.1146,0,0,1-.3809-.85V24.7266q0-4.3359-1.6553-6.0937a6.2254,6.2254,0,0,0-4.7607-1.7578,24.4057,24.4057,0,0,0-4.0723.4248,17.2212,17.2212,0,0,0-4.2187,1.2451V44.4727a1.1854,1.1854,0,0,1-.3369.85,1.11,1.11,0,0,1-.835.3516h-2.959a1.0929,1.0929,0,0,1-.791-.3516,1.1575,1.1575,0,0,1-.3516-.85V1.7578a1.1971,1.1971,0,0,1,.3223-.8643,1.0852,1.0852,0,0,1,.82-.3369H150.85a1.0292,1.0292,0,0,1,.82.3369,1.2719,1.2719,0,0,1,.293.8643V14.1211a21.3747,21.3747,0,0,1,4.6-1.4062,24.6614,24.6614,0,0,1,4.6-.4687,11.8753,11.8753,0,0,1,5.6689,1.2891,8.7233,8.7233,0,0,1,3.7646,4.1309,16.4424,16.4424,0,0,1,1.3477,7.0605Z"/><path class="cls-1" d="M194.9414,15.791q0,1.0254-1.26,1.0254a16.0043,16.0043,0,0,0-8.291,2.52V44.4727a1.1854,1.1854,0,0,1-.3369.85,1.11,1.11,0,0,1-.835.3516H181.26a1.0929,1.0929,0,0,1-.791-.3516,1.1575,1.1575,0,0,1-.3516-.85V13.8867a1.1971,1.1971,0,0,1,.3223-.8643,1.0852,1.0852,0,0,1,.82-.3369h2.8125a1.0747,1.0747,0,0,1,.835.3369,1.2321,1.2321,0,0,1,.3076.8643v1.26a14.6682,14.6682,0,0,1,8.4668-2.9q1.259,0,1.26,1.084Z"/><path class="cls-1" d="M224.6484,29.5313q0,1.3184-1.1426,1.3184H203.4082v.85q0,5.2148,2.0361,7.5t6.2842,2.2852q2.7832,0,5.6689-.1758t5.0244-.498h.293q.9668,0,.9668.85v2.0215a1.4483,1.4483,0,0,1-.249.9229,1.7608,1.7608,0,0,1-.9521.4834q-2.4324.4688-5.083.7324t-5.6689.2637a16.7,16.7,0,0,1-6.8262-1.3477,10.6793,10.6793,0,0,1-4.9219-4.541,16.7015,16.7015,0,0,1-1.875-8.4961v-5.42q0-6.5039,3.501-10.2686t9.8291-3.7646a14.31,14.31,0,0,1,7.251,1.7285,10.7658,10.7658,0,0,1,4.4824,4.9072,17.3715,17.3715,0,0,1,1.4795,7.3975Zm-5.3613-2.6953v-.5566a14.4559,14.4559,0,0,0-.8643-5.42,5.8132,5.8132,0,0,0-2.5928-3.0469,9.16,9.16,0,0,0-4.3945-.9375q-8.0273,0-8.0273,9.4043v.5566Z"/><path class="cls-1" d="M252.7148,37.3828q0,4.4531-2.9883,6.5771t-8.2324,2.124a42.1389,42.1389,0,0,1-9.4922-.8789q-1.26-.3516-1.26-1.2012V41.8945a.7909.7909,0,0,1,.3223-.6592,1.2094,1.2094,0,0,1,.7617-.249h.2344a72.7967,72.7967,0,0,0,9.4336.6738,8.3643,8.3643,0,0,0,4.4824-.9521,3.6607,3.6607,0,0,0,1.4648-3.3252,3.457,3.457,0,0,0-.9668-2.4023,16.4345,16.4345,0,0,0-3.5449-2.5781l-6.0645-3.5742a16.608,16.608,0,0,1-4.57-3.8672,7.5209,7.5209,0,0,1-1.5527-4.7168q0-4.3945,2.8857-6.1963t7.9834-1.8018a57.6756,57.6756,0,0,1,9.375.791A1.1352,1.1352,0,0,1,252.1,14.2383v1.9629a.8938.8938,0,0,1-.9961,1.0254h-.1758q-5.625-.4687-9.3164-.4687a9.724,9.724,0,0,0-4.2334.6885,2.8435,2.8435,0,0,0-1.333,2.7979,3.1207,3.1207,0,0,0,.9375,2.2119,15.8618,15.8618,0,0,0,3.1934,2.3291L246.123,28.33a16.2406,16.2406,0,0,1,5.1123,4.248A8.1663,8.1663,0,0,1,252.7148,37.3828Z"/><path class="cls-1" d="M283.3594,44.8828q0,.791-.6445.791h-4.3359a1.5373,1.5373,0,0,1-.7178-.1465,2.3057,2.3057,0,0,1-.6592-.6445L265.0488,30.1465V44.4727a1.1757,1.1757,0,0,1-1.1719,1.2012h-2.9a1.19,1.19,0,0,1-.82-.3516,1.1146,1.1146,0,0,1-.3809-.85V1.7578a1.1575,1.1575,0,0,1,.3516-.85,1.1567,1.1567,0,0,1,.85-.3516h2.9a1.1494,1.1494,0,0,1,.85.3223,1.1876,1.1876,0,0,1,.3223.8789V26.7188l12.0117-13.5059a1.48,1.48,0,0,1,1.2012-.5273h4.1895q.9075,0,.9082.6445a.9281.9281,0,0,1-.293.6738L269.8535,28.2715l13.33,16.084A.7162.7162,0,0,1,283.3594,44.8828Z"/><path class="cls-1" d="M313.2422,31.4648a18.2225,18.2225,0,0,1-1.5234,7.7344,11.3264,11.3264,0,0,1-4.541,5.083,14.0427,14.0427,0,0,1-7.3242,1.8018q-6.4453,0-9.8877-3.94t-3.4424-10.6787v-4.57q0-6.7676,3.4424-10.708t9.8877-3.94a15.1308,15.1308,0,0,1,5.8154,1.0254,11.2261,11.2261,0,0,1,4.1748,2.9443,12.5345,12.5345,0,0,1,2.5488,4.6436,20.2088,20.2088,0,0,1,.85,6.0352Zm-5.2734,0v-4.57q0-4.7461-1.9922-7.3828t-6.123-2.6367a7.0977,7.0977,0,0,0-6.0352,2.6221q-1.9929,2.6221-1.9922,7.3975v4.57q0,10.02,8.0273,10.02,4.1016,0,6.1084-2.6074T307.9688,31.4648Z"/><path class="cls-1" d="M345.5571,44.4727a1.1757,1.1757,0,0,1-1.1719,1.2012h-2.9a1.1912,1.1912,0,0,1-.82-.3516,1.1146,1.1146,0,0,1-.3809-.85V24.7266a13.3644,13.3644,0,0,0-.6738-4.7021,4.416,4.416,0,0,0-2.125-2.4756,8.4338,8.4338,0,0,0-3.793-.7324,19.0608,19.0608,0,0,0-8.1157,2.3438V44.4727a1.1854,1.1854,0,0,1-.3369.85,1.11,1.11,0,0,1-.835.3516h-2.959a1.0929,1.0929,0,0,1-.791-.3516,1.1575,1.1575,0,0,1-.3516-.85V13.8867a1.1971,1.1971,0,0,1,.3223-.8643,1.0853,1.0853,0,0,1,.82-.3369h3.0176a1.0292,1.0292,0,0,1,.82.3369,1.2719,1.2719,0,0,1,.293.8643V15a23.9553,23.9553,0,0,1,4.7754-2.08,16.6038,16.6038,0,0,1,4.7759-.6738q5.332,0,7.8809,3.1641t2.5488,9.3164Z"/><path class="cls-1" d="M369.8149,3.3105q0,.9082-1.084.9082H365.86a5.5077,5.5077,0,0,0-2.2266.3516,2.1178,2.1178,0,0,0-1.0986,1.23,7.452,7.452,0,0,0-.3369,2.5488v4.3359h6.2988a1.1537,1.1537,0,0,1,.8057.3076.9745.9745,0,0,1,.3369.7471V16.084q0,1.0254-1.1426,1.0254h-6.2988V44.4727a1.1834,1.1834,0,0,1-.3369.85,1.0771,1.0771,0,0,1-.8057.3516h-2.93a1.1217,1.1217,0,0,1-.8643-.3662,1.199,1.199,0,0,1-.3369-.835V17.1094l-5.83-.6445a1.4469,1.4469,0,0,1-.835-.3369.9578.9578,0,0,1-.3076-.7471V13.74a.9745.9745,0,0,1,.3369-.7471,1.1537,1.1537,0,0,1,.8057-.3076h5.83V8.35a10.726,10.726,0,0,1,.9668-4.9512A5.5233,5.5233,0,0,1,360.7036.7764a11.9043,11.9043,0,0,1,4.6-.7764,14.85,14.85,0,0,1,3.3691.3809q1.1426.293,1.1426.9668Z"/><path class="cls-1" d="M399.3462,29.5313q0,1.3184-1.1426,1.3184H378.106v.85q0,5.2148,2.0361,7.5t6.2842,2.2852q2.7832,0,5.6689-.1758t5.0244-.498h.293q.9668,0,.9668.85v2.0215a1.4453,1.4453,0,0,1-.249.9229,1.7608,1.7608,0,0,1-.9521.4834q-2.4316.4688-5.083.7324t-5.6689.2637A16.7,16.7,0,0,1,379.6,44.7363a10.684,10.684,0,0,1-4.9219-4.541,16.7015,16.7015,0,0,1-1.875-8.4961v-5.42q0-6.5039,3.501-10.2686t9.8291-3.7646a14.3078,14.3078,0,0,1,7.251,1.7285,10.7658,10.7658,0,0,1,4.4824,4.9072,17.3641,17.3641,0,0,1,1.4795,7.3975Zm-5.3613-2.6953v-.5566a14.446,14.446,0,0,0-.8643-5.42,5.8132,5.8132,0,0,0-2.5928-3.0469,9.1572,9.1572,0,0,0-4.3945-.9375q-8.0273,0-8.0273,9.4043v.5566Z"/><path class="cls-1" d="M421.3477,15.791q0,1.0254-1.26,1.0254a16.0056,16.0056,0,0,0-8.291,2.52V44.4727a1.1834,1.1834,0,0,1-.3369.85,1.11,1.11,0,0,1-.835.3516h-2.959a1.093,1.093,0,0,1-.791-.3516,1.1575,1.1575,0,0,1-.3516-.85V13.8867a1.1991,1.1991,0,0,1,.3223-.8643,1.086,1.086,0,0,1,.82-.3369h2.8125a1.0747,1.0747,0,0,1,.835.3369,1.2321,1.2321,0,0,1,.3076.8643v1.26a14.6693,14.6693,0,0,1,8.4668-2.9q1.26,0,1.26,1.084Z"/><path class="cls-1" d="M451.0547,29.5313q0,1.3184-1.1426,1.3184H429.8145v.85q0,5.2148,2.0361,7.5t6.2842,2.2852q2.7832,0,5.6689-.1758t5.0244-.498h.293q.9668,0,.9668.85v2.0215a1.4453,1.4453,0,0,1-.249.9229,1.7608,1.7608,0,0,1-.9521.4834q-2.4316.4688-5.083.7324t-5.6689.2637a16.7,16.7,0,0,1-6.8262-1.3477,10.684,10.684,0,0,1-4.9219-4.541,16.7015,16.7015,0,0,1-1.875-8.4961v-5.42q0-6.5039,3.501-10.2686t9.8291-3.7646a14.3078,14.3078,0,0,1,7.251,1.7285,10.7658,10.7658,0,0,1,4.4824,4.9072,17.3641,17.3641,0,0,1,1.4795,7.3975Zm-5.3613-2.6953v-.5566a14.446,14.446,0,0,0-.8643-5.42,5.8132,5.8132,0,0,0-2.5928-3.0469,9.1572,9.1572,0,0,0-4.3945-.9375q-8.0273,0-8.0273,9.4043v.5566Z"/><path class="cls-1" d="M483.4863,44.4727a1.1757,1.1757,0,0,1-1.1719,1.2012h-2.9a1.1912,1.1912,0,0,1-.82-.3516,1.1146,1.1146,0,0,1-.3809-.85V24.7266a13.3644,13.3644,0,0,0-.6738-4.7021,4.4145,4.4145,0,0,0-2.124-2.4756,8.4383,8.4383,0,0,0-3.7939-.7324,19.0608,19.0608,0,0,0-8.1152,2.3438V44.4727a1.1834,1.1834,0,0,1-.3369.85,1.11,1.11,0,0,1-.835.3516h-2.959a1.0929,1.0929,0,0,1-.791-.3516,1.1575,1.1575,0,0,1-.3516-.85V13.8867a1.1991,1.1991,0,0,1,.3223-.8643,1.086,1.086,0,0,1,.82-.3369h3.0176a1.0292,1.0292,0,0,1,.82.3369,1.27,1.27,0,0,1,.293.8643V15a23.9675,23.9675,0,0,1,4.7754-2.08,16.6,16.6,0,0,1,4.7754-.6738q5.332,0,7.8809,3.1641t2.5488,9.3164Z"/><path class="cls-1" d="M513.5156,44.4727a1.1146,1.1146,0,0,1-.3809.85,1.1912,1.1912,0,0,1-.82.3516H494.18a3.6565,3.6565,0,0,1-2.7246-.9521,3.229,3.229,0,0,1-.9375-2.3584V41.2207a6.1108,6.1108,0,0,1,.293-2.08,7.2283,7.2283,0,0,1,1.084-1.8164l15.498-19.248a1.1271,1.1271,0,0,0,.2344-.5566q0-.41-.5859-.41h-14.59a1.2,1.2,0,0,1-1.2012-1.2012V13.8867a1.1834,1.1834,0,0,1,.3369-.85,1.1444,1.1444,0,0,1,.8643-.3516h17.6367q3.3691,0,3.3691,2.93v1.4355a5.23,5.23,0,0,1-1.377,3.3105l-15.791,19.7461a.8959.8959,0,0,0-.293.6445.4143.4143,0,0,0,.4688.4688h15.85a1.3162,1.3162,0,0,1,1.2012,1.2012Z"/><path class="cls-1" d="M559.7168,43.6816a1.4915,1.4915,0,0,1-.249.9668,1.7756,1.7756,0,0,1-1.0107.4395,59.4183,59.4183,0,0,1-11.0449.9961,13.7718,13.7718,0,0,1-7.31-1.8018,10.8046,10.8046,0,0,1-4.3652-5.1562,20.0586,20.0586,0,0,1-1.4209-7.8662V26.9531a22.2324,22.2324,0,0,1,.8057-6.3135,11.9714,11.9714,0,0,1,2.4609-4.585,10.5481,10.5481,0,0,1,4.1016-2.8418,15.5316,15.5316,0,0,1,5.7275-.9668q1.8164,0,3.6328.1465a27.4852,27.4852,0,0,1,3.3691.4688V1.6992a1.1248,1.1248,0,0,1,.3223-.8057,1.086,1.086,0,0,1,.82-.3369h3.0762a1.0415,1.0415,0,0,1,.7617.3223,1.1112,1.1112,0,0,1,.3223.82Zm-5.3027-2.5781V17.2852a21.3174,21.3174,0,0,0-3.0762-.3369q-1.6992-.0732-3.9258-.0732a8.1744,8.1744,0,0,0-4.57,1.1572,6.2231,6.2231,0,0,0-2.49,3.3691,17.9082,17.9082,0,0,0-.7324,5.5518V31.26q0,5.1563,1.7578,7.69t6.0352,2.5342Q550.0488,41.4844,554.4141,41.1035Z"/><path class="cls-1" d="M593.32,29.5313q0,1.3184-1.1426,1.3184H572.08v.85q0,5.2148,2.0361,7.5T580.4,41.4844q2.7832,0,5.6689-.1758t5.0244-.498h.293q.9668,0,.9668.85v2.0215a1.4453,1.4453,0,0,1-.249.9229,1.7608,1.7608,0,0,1-.9521.4834q-2.4316.4688-5.083.7324T580.4,46.084a16.7,16.7,0,0,1-6.8262-1.3477,10.684,10.684,0,0,1-4.9219-4.541,16.7015,16.7015,0,0,1-1.875-8.4961v-5.42q0-6.5039,3.501-10.2686t9.8291-3.7646a14.3078,14.3078,0,0,1,7.251,1.7285,10.7658,10.7658,0,0,1,4.4824,4.9072,17.3641,17.3641,0,0,1,1.4795,7.3975Zm-5.3613-2.6953v-.5566a14.446,14.446,0,0,0-.8643-5.42,5.8132,5.8132,0,0,0-2.5928-3.0469,9.1572,9.1572,0,0,0-4.3945-.9375q-8.0273,0-8.0273,9.4043v.5566Z"/><path class="cls-1" d="M615.3223,15.791q0,1.0254-1.26,1.0254a16.0056,16.0056,0,0,0-8.291,2.52V44.4727a1.1834,1.1834,0,0,1-.3369.85,1.11,1.11,0,0,1-.835.3516h-2.959a1.0929,1.0929,0,0,1-.791-.3516,1.1575,1.1575,0,0,1-.3516-.85V13.8867a1.1991,1.1991,0,0,1,.3223-.8643,1.086,1.086,0,0,1,.82-.3369h2.8125a1.0747,1.0747,0,0,1,.835.3369,1.2321,1.2321,0,0,1,.3076.8643v1.26a14.6693,14.6693,0,0,1,8.4668-2.9q1.26,0,1.26,1.084Z"/><path class="cls-1" d="M161.5137,107.2611a1.262,1.262,0,0,1-.3076.835.9711.9711,0,0,1-.7764.3662h-3.3105a1.0362,1.0362,0,0,1-.7471-.3369,1.17,1.17,0,0,1-.3369-.8643V65.015a1.1409,1.1409,0,0,1,.3223-.791,1.001,1.001,0,0,1,.7617-.3516H160.43a1.0415,1.0415,0,0,1,.7617.3223,1.1112,1.1112,0,0,1,.3223.82Z"/><path class="cls-1" d="M196.1133,107.2611a1.1757,1.1757,0,0,1-1.1719,1.2012h-2.9a1.1912,1.1912,0,0,1-.82-.3516,1.1146,1.1146,0,0,1-.3809-.85V87.515a13.3644,13.3644,0,0,0-.6738-4.7021,4.4145,4.4145,0,0,0-2.124-2.4756,8.4382,8.4382,0,0,0-3.7939-.7324,19.0608,19.0608,0,0,0-8.1152,2.3438v25.3125a1.1834,1.1834,0,0,1-.3369.85,1.11,1.11,0,0,1-.835.3516h-2.959a1.0929,1.0929,0,0,1-.791-.3516,1.1575,1.1575,0,0,1-.3516-.85V76.6752a1.1991,1.1991,0,0,1,.3223-.8643,1.086,1.086,0,0,1,.82-.3369H175.02a1.0292,1.0292,0,0,1,.82.3369,1.27,1.27,0,0,1,.293.8643v1.1133a23.9675,23.9675,0,0,1,4.7754-2.08,16.6,16.6,0,0,1,4.7754-.6738q5.332,0,7.8809,3.1641t2.5488,9.3164Z"/><path class="cls-1" d="M220.3711,66.099q0,.9082-1.084.9082H216.416a5.5077,5.5077,0,0,0-2.2266.3516,2.1178,2.1178,0,0,0-1.0986,1.23,7.452,7.452,0,0,0-.3369,2.5488V75.474h6.2988a1.1537,1.1537,0,0,1,.8057.3076.9745.9745,0,0,1,.3369.7471v2.3438q0,1.0254-1.1426,1.0254h-6.2988v27.3633a1.1833,1.1833,0,0,1-.3369.85,1.0771,1.0771,0,0,1-.8057.3516h-2.93a1.1217,1.1217,0,0,1-.8643-.3662,1.199,1.199,0,0,1-.3369-.835V79.8978l-5.83-.6445a1.4469,1.4469,0,0,1-.835-.3369.9578.9578,0,0,1-.3076-.7471V76.5287a.9745.9745,0,0,1,.3369-.7471,1.1537,1.1537,0,0,1,.8057-.3076h5.83V71.1381a10.726,10.726,0,0,1,.9668-4.9512,5.5233,5.5233,0,0,1,2.8125-2.6221,11.9043,11.9043,0,0,1,4.6-.7764,14.85,14.85,0,0,1,3.3691.3809q1.1426.293,1.1426.9668Z"/><path class="cls-1" d="M250.2539,94.2533a18.2151,18.2151,0,0,1-1.5234,7.7344,11.3236,11.3236,0,0,1-4.541,5.083,14.0427,14.0427,0,0,1-7.3242,1.8018q-6.4453,0-9.8877-3.94t-3.4424-10.6787v-4.57q0-6.7676,3.4424-10.708t9.8877-3.94a15.129,15.129,0,0,1,5.8154,1.0254,11.2261,11.2261,0,0,1,4.1748,2.9443,12.5206,12.5206,0,0,1,2.5488,4.6436,20.2088,20.2088,0,0,1,.85,6.0352Zm-5.2734,0v-4.57q0-4.7461-1.9922-7.3828t-6.123-2.6367a7.0977,7.0977,0,0,0-6.0352,2.6221q-1.9922,2.6221-1.9922,7.3975v4.57q0,10.02,8.0273,10.02,4.1016,0,6.1084-2.6074T244.98,94.2533Z"/><path class="cls-1" d="M272.1387,78.5795q0,1.0254-1.26,1.0254a16.0056,16.0056,0,0,0-8.291,2.52v25.1367a1.1834,1.1834,0,0,1-.3369.85,1.11,1.11,0,0,1-.835.3516h-2.959a1.0929,1.0929,0,0,1-.791-.3516,1.1575,1.1575,0,0,1-.3516-.85V76.6752a1.1991,1.1991,0,0,1,.3223-.8643,1.086,1.086,0,0,1,.82-.3369H261.27a1.0747,1.0747,0,0,1,.835.3369,1.2321,1.2321,0,0,1,.3076.8643v1.26a14.6693,14.6693,0,0,1,8.4668-2.9q1.26,0,1.26,1.084Z"/><path class="cls-1" d="M317.5488,107.2611a1.1444,1.1444,0,0,1-.3516.8643,1.1834,1.1834,0,0,1-.85.3369h-2.8711a1.2,1.2,0,0,1-1.2012-1.2012v-21.24q0-3.5449-1.45-4.98a5.4769,5.4769,0,0,0-4.0283-1.4355,20.1483,20.1483,0,0,0-7.002,1.6113,18.24,18.24,0,0,1,.5273,4.6875v21.3574a1.27,1.27,0,0,1-.293.8643.9948.9948,0,0,1-.791.3369h-3.1641a.9151.9151,0,0,1-.7324-.3516,1.2836,1.2836,0,0,1-.293-.85V85.9037a11.9349,11.9349,0,0,0-.498-3.8965,3.2484,3.2484,0,0,0-1.4795-1.89,5.7656,5.7656,0,0,0-2.6514-.5127q-2.5781,0-7.3242,2.3438v25.3125a1.27,1.27,0,0,1-.293.8643.9619.9619,0,0,1-.7617.3369h-3.1934a.9151.9151,0,0,1-.7324-.3516,1.2836,1.2836,0,0,1-.293-.85V76.6752a1.1991,1.1991,0,0,1,.3223-.8643,1.086,1.086,0,0,1,.82-.3369h3.0176a1.0292,1.0292,0,0,1,.82.3369,1.27,1.27,0,0,1,.293.8643v1.1133a16.5624,16.5624,0,0,1,8.76-2.8125,7.532,7.532,0,0,1,6.0059,2.4609,23.4816,23.4816,0,0,1,9.9609-2.4609,11.3659,11.3659,0,0,1,5.0537,1.0547,7.5987,7.5987,0,0,1,3.4131,3.5156,14.25,14.25,0,0,1,1.26,6.4746Z"/><path class="cls-1" d="M348.6914,107.2611a1.1146,1.1146,0,0,1-.3809.85,1.1912,1.1912,0,0,1-.82.3516H344.707a1.1243,1.1243,0,0,1-.82-.3516,1.1575,1.1575,0,0,1-.3516-.85v-1.3184q-1.4941.85-3.0029,1.5234a16.8194,16.8194,0,0,1-3.1055,1.04,14.0559,14.0559,0,0,1-3.1494.3662,10.7792,10.7792,0,0,1-7.0312-2.2412q-2.7539-2.2412-2.7539-7.4561v-.7324a10.8375,10.8375,0,0,1,.791-4.3213,7.078,7.078,0,0,1,2.4316-3.0029,12.1086,12.1086,0,0,1,4.4678-1.7871,32.34,32.34,0,0,1,6.7822-.6152h4.4238V86.3139q0-3.7793-1.4355-5.2734t-4.98-1.4941q-4.3652,0-9.17.4688h-.293q-1.084,0-1.084-.9668v-2.08q0-.9668,1.26-1.1426a56.442,56.442,0,0,1,9.2871-.791q11.7188,0,11.7188,11.2793Zm-5.3027-5.0977v-9.668h-4.4238q-5.3027,0-7.2363,1.3037t-1.9336,4.585v.7324a7.1291,7.1291,0,0,0,.63,3.2812,3.5037,3.5037,0,0,0,1.8164,1.6846,8.2091,8.2091,0,0,0,3.0615.4834,12.96,12.96,0,0,0,3.8818-.5713A25.22,25.22,0,0,0,343.3887,102.1635Z"/><path class="cls-1" d="M372.92,107.5541q0,.8789-1.084,1.0254a26.7651,26.7651,0,0,1-3.8965.293q-4.3945,0-6.27-1.6553t-1.875-6.3721V79.8978l-5.83-.6445q-1.1426-.1172-1.1426-1.084V76.5287a.9936.9936,0,0,1,.3076-.7764,1.1979,1.1979,0,0,1,.835-.2783h5.83V69.5853a1.1238,1.1238,0,0,1,1.084-1.2012l3.1055-.4687h.1758a.8768.8768,0,0,1,.6445.2637.99.99,0,0,1,.2637.7324V75.474h6.4746a1.1132,1.1132,0,0,1,1.2012,1.2012v2.0215a1.1444,1.1444,0,0,1-.3516.8643,1.1834,1.1834,0,0,1-.85.3369h-6.4746v20.9473q0,2.4023.6738,3.0908a3.6249,3.6249,0,0,0,2.5781.6885h3.34q1.26,0,1.26.85Z"/><path class="cls-1" d="M384.5508,68.97a1.1444,1.1444,0,0,1-.3516.8643,1.1834,1.1834,0,0,1-.85.3369h-3.0469a1.2,1.2,0,0,1-1.2012-1.2012V64.1947a1.1834,1.1834,0,0,1,.3369-.85,1.1444,1.1444,0,0,1,.8643-.3516H383.35a1.1132,1.1132,0,0,1,1.2012,1.2012Zm-.1172,38.291a1.1444,1.1444,0,0,1-.3516.8643,1.1834,1.1834,0,0,1-.85.3369h-2.8711a1.2,1.2,0,0,1-1.2012-1.2012V76.6752a1.1834,1.1834,0,0,1,.3369-.85,1.1444,1.1444,0,0,1,.8643-.3516h2.8711a1.1132,1.1132,0,0,1,1.2012,1.2012Z"/><path class="cls-1" d="M416.8945,107.6713q0,.791-.6445.791h-4.3359a1.5373,1.5373,0,0,1-.7178-.1465,2.3181,2.3181,0,0,1-.6592-.6445L398.584,92.9349v14.3262a1.1757,1.1757,0,0,1-1.1719,1.2012h-2.9a1.1912,1.1912,0,0,1-.82-.3516,1.1146,1.1146,0,0,1-.3809-.85V64.5463a1.2,1.2,0,0,1,1.2012-1.2012h2.9a1.1486,1.1486,0,0,1,.85.3223,1.1876,1.1876,0,0,1,.3223.8789V89.5072l12.0117-13.5059a1.48,1.48,0,0,1,1.2012-.5273h4.1895q.9082,0,.9082.6445a.9262.9262,0,0,1-.293.6738L403.3887,91.06l13.33,16.084A.7162.7162,0,0,1,416.8945,107.6713Z"/><path class="cls-1" d="M470.0684,107.4955q0,.9668-1.0254.9668H465.498q-.791,0-.9961-.9082l-3.9258-13.7988H445.0488l-3.8379,13.7988a1.2823,1.2823,0,0,1-1.084.9082H436.582a1.0363,1.0363,0,0,1-.7178-.2783.8914.8914,0,0,1-.3076-.6885,1.0056,1.0056,0,0,1,.0586-.41l11.1035-39.0527a5.7493,5.7493,0,0,1,2.4316-3.56,7.092,7.092,0,0,1,3.6914-1.0107,7.6435,7.6435,0,0,1,2.4609.3955,5.3,5.3,0,0,1,2.1387,1.4063,6.4826,6.4826,0,0,1,1.4648,2.71L470.01,107.0853A1.0056,1.0056,0,0,1,470.0684,107.4955ZM459.4336,89.0092l-5.4492-19.7168q-.293-1.084-1.1426-1.084-.9082,0-1.2012,1.084l-5.4492,19.7168Z"/><path class="cls-1" d="M499.4531,107.6713q0,.791-.6445.791h-4.3359a1.5373,1.5373,0,0,1-.7178-.1465,2.3181,2.3181,0,0,1-.6592-.6445L481.1426,92.9349v14.3262a1.1757,1.1757,0,0,1-1.1719,1.2012h-2.9a1.1911,1.1911,0,0,1-.82-.3516,1.1146,1.1146,0,0,1-.3809-.85V64.5463a1.2,1.2,0,0,1,1.2012-1.2012h2.9a1.1486,1.1486,0,0,1,.85.3223,1.1876,1.1876,0,0,1,.3223.8789V89.5072l12.0117-13.5059a1.48,1.48,0,0,1,1.2012-.5273h4.1895q.9082,0,.9082.6445a.9262.9262,0,0,1-.293.6738L485.9473,91.06l13.33,16.084A.7162.7162,0,0,1,499.4531,107.6713Z"/><path class="cls-1" d="M523.1543,107.5541q0,.8789-1.084,1.0254a26.7651,26.7651,0,0,1-3.8965.293q-4.3945,0-6.27-1.6553t-1.875-6.3721V79.8978l-5.83-.6445q-1.1426-.1172-1.1426-1.084V76.5287a.9936.9936,0,0,1,.3076-.7764,1.1979,1.1979,0,0,1,.835-.2783h5.83V69.5853a1.1238,1.1238,0,0,1,1.084-1.2012l3.1055-.4687h.1758a.8767.8767,0,0,1,.6445.2637.99.99,0,0,1,.2637.7324V75.474h6.4746a1.1132,1.1132,0,0,1,1.2012,1.2012v2.0215a1.1444,1.1444,0,0,1-.3516.8643,1.1834,1.1834,0,0,1-.85.3369h-6.4746v20.9473q0,2.4023.6738,3.0908a3.6249,3.6249,0,0,0,2.5781.6885h3.34q1.26,0,1.26.85Z"/><path class="cls-1" d="M553.9746,107.2611a1.2321,1.2321,0,0,1-.3076.8643,1.04,1.04,0,0,1-.8057.3369h-3.0176a1.0994,1.0994,0,0,1-.8057-.3369,1.17,1.17,0,0,1-.3369-.8643v-1.1426a22.3992,22.3992,0,0,1-4.7461,2.08,16.7966,16.7966,0,0,1-4.7754.6738q-10.459,0-10.459-12.48V76.6752a1.2,1.2,0,0,1,1.2012-1.2012h2.9a1.1486,1.1486,0,0,1,.85.3223,1.1876,1.1876,0,0,1,.3223.8789V96.392a13.0766,13.0766,0,0,0,.7031,4.7461,4.4813,4.4813,0,0,0,2.1387,2.4756,8.489,8.489,0,0,0,3.7793.7178,18.7345,18.7345,0,0,0,8.0859-2.3437V76.6752a1.254,1.254,0,0,1,1.2012-1.2012h2.959a1.04,1.04,0,0,1,.8057.3369,1.2321,1.2321,0,0,1,.3076.8643Z"/><path class="cls-1" d="M587.6074,92.32q0,1.3184-1.1426,1.3184H566.3672v.85q0,5.2148,2.0361,7.5t6.2842,2.2852q2.7832,0,5.6689-.1758t5.0244-.498h.293q.9668,0,.9668.85V106.47a1.4453,1.4453,0,0,1-.249.9229,1.7608,1.7608,0,0,1-.9521.4834q-2.4316.4688-5.083.7324t-5.6689.2637a16.7,16.7,0,0,1-6.8262-1.3477,10.684,10.684,0,0,1-4.9219-4.541,16.7015,16.7015,0,0,1-1.875-8.4961v-5.42q0-6.5039,3.501-10.2686t9.8291-3.7646a14.3078,14.3078,0,0,1,7.251,1.7285,10.7658,10.7658,0,0,1,4.4824,4.9072,17.3641,17.3641,0,0,1,1.4795,7.3975Zm-5.3613-2.6953v-.5566a14.446,14.446,0,0,0-.8643-5.42,5.8132,5.8132,0,0,0-2.5928-3.0469,9.1572,9.1572,0,0,0-4.3945-.9375q-8.0273,0-8.0273,9.4043v.5566Z"/><path class="cls-1" d="M600.6738,107.2611a1.27,1.27,0,0,1-.293.8643.9948.9948,0,0,1-.791.3369h-3.1055a1.0062,1.0062,0,0,1-.7764-.3369,1.2321,1.2321,0,0,1-.3076-.8643V64.4877a1.2417,1.2417,0,0,1,.2783-.791.9666.9666,0,0,1,.8057-.3516H599.59a1.0162,1.0162,0,0,1,.791.3223,1.1727,1.1727,0,0,1,.293.82Z"/><path class="cls-1" d="M615.3223,107.2611a1.27,1.27,0,0,1-.293.8643.9948.9948,0,0,1-.791.3369h-3.1055a1.0062,1.0062,0,0,1-.7764-.3369,1.2321,1.2321,0,0,1-.3076-.8643V64.4877a1.2417,1.2417,0,0,1,.2783-.791.9666.9666,0,0,1,.8057-.3516h3.1055a1.0162,1.0162,0,0,1,.791.3223,1.1727,1.1727,0,0,1,.293.82Z"/></svg>