<svg id="Layer_1" data-name="Layer 1" xmlns="http://www.w3.org/2000/svg" viewBox="0 0 410.7715 57.4805"><defs><style>.cls-1{fill:#025ea8;}</style></defs><title>material</title><path class="cls-1" d="M28.1836,14.2676q0,13.4473-16.7871,13.4473-2.1094,0-6.0059-.293V44.2676a1.2711,1.2711,0,0,1-.293.8643.9948.9948,0,0,1-.791.3369H1.084a1.0062,1.0062,0,0,1-.7764-.3369A1.2313,1.2313,0,0,1,0,44.2676V2.4609A1.4157,1.4157,0,0,1,1.4355.9375,90.2619,90.2619,0,0,1,11.3965.4688q16.7871,0,16.7871,13.0078Zm-5.4492,0v-.791q0-4.4824-2.71-6.4307T11.3965,5.0977q-3.1355,0-6.0059.2344V22.91q.3223,0,1.0693.0439t1.6113.0732q.8635.0293,1.8164.0732t1.5088.0439q6.093,0,8.7158-2.08T22.7344,14.2676Z"/><path class="cls-1" d="M60.2051,44.2676a1.1757,1.1757,0,0,1-1.1719,1.2012h-2.9a1.19,1.19,0,0,1-.82-.3516,1.1138,1.1138,0,0,1-.3809-.85V24.5215q0-4.3352-1.6553-6.0937A6.2254,6.2254,0,0,0,48.5156,16.67a24.4579,24.4579,0,0,0-4.0723.4248A17.2426,17.2426,0,0,0,40.2246,18.34V44.2676a1.1846,1.1846,0,0,1-.3369.85,1.11,1.11,0,0,1-.835.3516h-2.959a1.0929,1.0929,0,0,1-.791-.3516,1.1567,1.1567,0,0,1-.3516-.85V1.5527a1.1971,1.1971,0,0,1,.3223-.8643,1.087,1.087,0,0,1,.82-.3369h3.0176a1.0307,1.0307,0,0,1,.82.3369,1.2719,1.2719,0,0,1,.293.8643V13.916a21.3747,21.3747,0,0,1,4.6-1.4062,24.7028,24.7028,0,0,1,4.6-.4687A11.8753,11.8753,0,0,1,55.0928,13.33a8.7278,8.7278,0,0,1,3.7646,4.1309,16.4424,16.4424,0,0,1,1.3477,7.0605Z"/><path class="cls-1" d="M74.4434,5.9766a1.1437,1.1437,0,0,1-.3516.8643,1.1834,1.1834,0,0,1-.85.3369H70.1953a1.2,1.2,0,0,1-1.2012-1.2012V1.2012a1.1834,1.1834,0,0,1,.3369-.85A1.1437,1.1437,0,0,1,70.1953,0h3.0469a1.1891,1.1891,0,0,1,.8789.3223,1.1891,1.1891,0,0,1,.3223.8789Zm-.1172,38.291a1.1437,1.1437,0,0,1-.3516.8643,1.1834,1.1834,0,0,1-.85.3369H70.2539a1.2,1.2,0,0,1-1.2012-1.2012V13.6816a1.1834,1.1834,0,0,1,.3369-.85,1.1437,1.1437,0,0,1,.8643-.3516H73.125a1.1132,1.1132,0,0,1,1.2012,1.2012Z"/><path class="cls-1" d="M89.0918,44.2676a1.2711,1.2711,0,0,1-.293.8643.9948.9948,0,0,1-.791.3369H84.9023a1.0062,1.0062,0,0,1-.7764-.3369,1.2313,1.2313,0,0,1-.3076-.8643V1.4941a1.2389,1.2389,0,0,1,.2783-.791.9666.9666,0,0,1,.8057-.3516h3.1055a1.0162,1.0162,0,0,1,.791.3223,1.1758,1.1758,0,0,1,.293.82Z"/><path class="cls-1" d="M103.916,5.9766a1.1437,1.1437,0,0,1-.3516.8643,1.1834,1.1834,0,0,1-.85.3369H99.668a1.2,1.2,0,0,1-1.2012-1.2012V1.2012a1.1834,1.1834,0,0,1,.3369-.85A1.1437,1.1437,0,0,1,99.668,0h3.0469a1.1891,1.1891,0,0,1,.8789.3223,1.1891,1.1891,0,0,1,.3223.8789Zm-.1172,38.291a1.1437,1.1437,0,0,1-.3516.8643,1.1834,1.1834,0,0,1-.85.3369H99.7266a1.2,1.2,0,0,1-1.2012-1.2012V13.6816a1.1834,1.1834,0,0,1,.3369-.85,1.1437,1.1437,0,0,1,.8643-.3516h2.8711a1.1132,1.1132,0,0,1,1.2012,1.2012Z"/><path class="cls-1" d="M138.0762,31.2012q0,7.1191-3.3105,10.8984T124.98,45.8789a40.9716,40.9716,0,0,1-7.0312-.6445v10.84a1.1546,1.1546,0,0,1-.3076.8057,1.0413,1.0413,0,0,1-.8057.3369H113.76a1.0415,1.0415,0,0,1-.7617-.3223,1.11,1.11,0,0,1-.3223-.82V14.7949a1.3274,1.3274,0,0,1,.2637-.9082,1.97,1.97,0,0,1,.9961-.4687q1.5227-.38,3.4863-.7031t3.8379-.498q1.8743-.1758,3.7207-.1758a13.6943,13.6943,0,0,1,7.2949,1.8018,10.9235,10.9235,0,0,1,4.3652,5.1416,19.8608,19.8608,0,0,1,1.4355,7.8809Zm-5.3027,0V26.8652q0-5.0383-1.7871-7.7051t-6.0059-2.666a41.321,41.321,0,0,0-7.0312.5859V40.84a37.545,37.545,0,0,0,7.0313.6152q4.2187,0,6.0059-2.5781T132.7734,31.2012Z"/><path class="cls-1" d="M170.5371,31.2012q0,7.1191-3.3105,10.8984t-9.7852,3.7793a40.9716,40.9716,0,0,1-7.0312-.6445v10.84a1.1546,1.1546,0,0,1-.3076.8057,1.0413,1.0413,0,0,1-.8057.3369h-3.0762a1.0415,1.0415,0,0,1-.7617-.3223,1.11,1.11,0,0,1-.3223-.82V14.7949a1.3274,1.3274,0,0,1,.2637-.9082,1.97,1.97,0,0,1,.9961-.4687q1.5227-.38,3.4863-.7031t3.8379-.498q1.8743-.1758,3.7207-.1758a13.6943,13.6943,0,0,1,7.2949,1.8018,10.9235,10.9235,0,0,1,4.3652,5.1416,19.8608,19.8608,0,0,1,1.4355,7.8809Zm-5.3027,0V26.8652q0-5.0383-1.7871-7.7051t-6.0059-2.666a41.321,41.321,0,0,0-7.0312.5859V40.84a37.545,37.545,0,0,0,7.0313.6152q4.2188,0,6.0059-2.5781T165.2344,31.2012Z"/><path class="cls-1" d="M222.3047,33.1641q0,12.7156-17.52,12.7148A68.7272,68.7272,0,0,1,195,45.3516a2.4933,2.4933,0,0,1-1.5088-.63,2.29,2.29,0,0,1-.4541-1.5967V3.1641A1.9421,1.9421,0,0,1,194.9414.9375a83.3931,83.3931,0,0,1,9.5508-.4687,34.9139,34.9139,0,0,1,9.0967,1.0547,12.4518,12.4518,0,0,1,6.1816,3.6182,9.9494,9.9494,0,0,1,2.3,6.8994v.9668a9.7236,9.7236,0,0,1-6.416,9.4336,9.3188,9.3188,0,0,1,4.8633,3.6182,10.45,10.45,0,0,1,1.7871,6.0791Zm-5.6836-20.1562V12.041q0-4.0137-3.0176-5.4785t-9.1113-1.4648q-1.3777,0-1.8164.0146t-1.7285.0586q-1.29.0439-2.4023.1025V20.1563h9.2578Q216.62,20.1563,216.6211,13.0078Zm.2344,20.1563V32.1387a7.5365,7.5365,0,0,0-2.0654-5.5078q-2.0654-2.1094-6.9873-2.1094h-9.2578V41.0156q.9375.0293,3.0615.1465t3.1787.1172a25.8624,25.8624,0,0,0,6.5918-.7031,7.5463,7.5463,0,0,0,4.043-2.4756A7.6441,7.6441,0,0,0,216.8555,33.1641Z"/><path class="cls-1" d="M254.6484,44.2676a1.2313,1.2313,0,0,1-.3076.8643,1.04,1.04,0,0,1-.8057.3369h-3.0176a1.0986,1.0986,0,0,1-.8057-.3369,1.1693,1.1693,0,0,1-.3369-.8643V43.125a22.399,22.399,0,0,1-4.7461,2.08,16.799,16.799,0,0,1-4.7754.6738q-10.459,0-10.459-12.48V13.6816a1.2,1.2,0,0,1,1.2012-1.2012h2.9a1.1494,1.1494,0,0,1,.85.3223,1.1891,1.1891,0,0,1,.3223.8789V33.3984a13.0766,13.0766,0,0,0,.7031,4.7461A4.4813,4.4813,0,0,0,237.51,40.62a8.4794,8.4794,0,0,0,3.7793.7178,18.7276,18.7276,0,0,0,8.0859-2.3437V13.6816a1.254,1.254,0,0,1,1.2012-1.2012h2.959a1.0413,1.0413,0,0,1,.8057.3369,1.2321,1.2321,0,0,1,.3076.8643Z"/><path class="cls-1" d="M277.6465,15.5859q0,1.0261-1.26,1.0254a16.0043,16.0043,0,0,0-8.291,2.52V44.2676a1.1846,1.1846,0,0,1-.3369.85,1.11,1.11,0,0,1-.835.3516h-2.959a1.0929,1.0929,0,0,1-.791-.3516,1.1567,1.1567,0,0,1-.3516-.85V13.6816a1.1971,1.1971,0,0,1,.3223-.8643,1.087,1.087,0,0,1,.82-.3369h2.8125a1.0763,1.0763,0,0,1,.835.3369,1.2321,1.2321,0,0,1,.3076.8643v1.26a14.6682,14.6682,0,0,1,8.4668-2.9q1.259,0,1.26,1.084Z"/><path class="cls-1" d="M309.1992,15.3516q0,.9668-1.084,1.1426l-2.1387.41a8.7957,8.7957,0,0,1,2.0215,6.1816v.4688q0,10.2832-13.33,10.2832a18.3781,18.3781,0,0,1-6.9434-1.2012,2.1656,2.1656,0,0,0-1.4941,2.0215,1.6972,1.6972,0,0,0,.4248,1.23,3.0517,3.0517,0,0,0,1.4209.7031l8.9355,2.2852a54.4107,54.4107,0,0,1,6.0352,1.875,10.4493,10.4493,0,0,1,3.9551,2.6221,6.1266,6.1266,0,0,1,1.5527,4.3213v.4688a8.0733,8.0733,0,0,1-3.252,6.9141q-3.252,2.4016-10.43,2.4023-6.9727,0-10.3857-2.5049a8.232,8.232,0,0,1-3.4131-7.0459v-.5273a9.1117,9.1117,0,0,1,1.0693-4.4092,10.0172,10.0172,0,0,1,2.71-3.2373l-.4395-.1758a4.0734,4.0734,0,0,1-2.0654-1.875,5.8173,5.8173,0,0,1-.6885-2.7832v-.0586a5.1175,5.1175,0,0,1,.6445-2.4756,4.6876,4.6876,0,0,1,1.8164-1.86,9.09,9.09,0,0,1-2.7539-6.9727v-.4687a10.15,10.15,0,0,1,3.0908-7.6025q3.0908-3.0029,10.21-3.0029h13.1543a1.4213,1.4213,0,0,1,.9521.3662,1.2,1.2,0,0,1,.4248.9521ZM303.252,48.1641v-.4687a3.0242,3.0242,0,0,0-1.5674-2.6807,21.8051,21.8051,0,0,0-5.7568-2.0068L289.16,41.2793a9.5467,9.5467,0,0,0-2.1826,2.5781,7.2934,7.2934,0,0,0-.7471,3.5449V47.93a5.233,5.233,0,0,0,.791,2.9883,5.0876,5.0876,0,0,0,2.7246,1.8164,16.6612,16.6612,0,0,0,5.127.6445q4.8625,0,6.6211-1.26A4.5338,4.5338,0,0,0,303.252,48.1641Zm-.4687-24.6094v-.4687a6.18,6.18,0,0,0-1.8018-4.7021Q299.18,16.67,294.668,16.67q-4.57,0-6.3281,1.7432a6.2862,6.2862,0,0,0-1.7578,4.6729v.4688a5.94,5.94,0,0,0,1.7578,4.3506q1.7578,1.7732,6.3281,1.7725,4.511,0,6.3135-1.582A5.72,5.72,0,0,0,302.7832,23.5547Z"/><path class="cls-1" d="M355.166,44.2676a1.1437,1.1437,0,0,1-.3516.8643,1.1834,1.1834,0,0,1-.85.3369h-2.8711a1.2,1.2,0,0,1-1.2012-1.2012v-21.24q0-3.5442-1.45-4.98a5.4788,5.4788,0,0,0-4.0283-1.4355,20.1572,20.1572,0,0,0-7.002,1.6113,18.24,18.24,0,0,1,.5273,4.6875V44.2676a1.2711,1.2711,0,0,1-.293.8643.9948.9948,0,0,1-.791.3369h-3.1641a.9145.9145,0,0,1-.7324-.3516,1.2827,1.2827,0,0,1-.293-.85V22.91a11.9371,11.9371,0,0,0-.498-3.8965,3.25,3.25,0,0,0-1.4795-1.89,5.7733,5.7733,0,0,0-2.6514-.5127q-2.5781,0-7.3242,2.3438V44.2676a1.2711,1.2711,0,0,1-.293.8643.9626.9626,0,0,1-.7617.3369h-3.1934a.9145.9145,0,0,1-.7324-.3516,1.2827,1.2827,0,0,1-.293-.85V13.6816a1.1971,1.1971,0,0,1,.3223-.8643,1.087,1.087,0,0,1,.82-.3369H319.6a1.0307,1.0307,0,0,1,.82.3369,1.2719,1.2719,0,0,1,.293.8643v1.1133a16.5611,16.5611,0,0,1,8.76-2.8125,7.532,7.532,0,0,1,6.0059,2.4609,23.48,23.48,0,0,1,9.9609-2.4609,11.3659,11.3659,0,0,1,5.0537,1.0547,7.5987,7.5987,0,0,1,3.4131,3.5156,14.25,14.25,0,0,1,1.26,6.4746Z"/><path class="cls-1" d="M388.77,29.3262q0,1.3184-1.1426,1.3184H367.5293v.85q0,5.2148,2.0361,7.5t6.2842,2.2852q2.7832,0,5.6689-.1758t5.0244-.498h.293q.9668,0,.9668.85v2.0215a1.4453,1.4453,0,0,1-.249.9229,1.7608,1.7608,0,0,1-.9521.4834q-2.4316.4688-5.083.7324t-5.6689.2637a16.7,16.7,0,0,1-6.8262-1.3477,10.6814,10.6814,0,0,1-4.9219-4.541,16.7,16.7,0,0,1-1.875-8.4961v-5.42q0-6.5039,3.501-10.2686t9.8291-3.7646a14.3078,14.3078,0,0,1,7.251,1.7285,10.7682,10.7682,0,0,1,4.4824,4.9072,17.3657,17.3657,0,0,1,1.4795,7.3975Zm-5.3613-2.6953v-.5566a14.446,14.446,0,0,0-.8643-5.42,5.8151,5.8151,0,0,0-2.5928-3.0469,9.1572,9.1572,0,0,0-4.3945-.9375q-8.0273,0-8.0273,9.4043v.5566Z"/><path class="cls-1" d="M410.7715,15.5859q0,1.0261-1.26,1.0254a16.0056,16.0056,0,0,0-8.291,2.52V44.2676a1.1825,1.1825,0,0,1-.3369.85,1.11,1.11,0,0,1-.835.3516H397.09a1.0929,1.0929,0,0,1-.791-.3516,1.1567,1.1567,0,0,1-.3516-.85V13.6816a1.1991,1.1991,0,0,1,.3223-.8643,1.0878,1.0878,0,0,1,.82-.3369h2.8125a1.0763,1.0763,0,0,1,.835.3369,1.2321,1.2321,0,0,1,.3076.8643v1.26a14.6693,14.6693,0,0,1,8.4668-2.9q1.26,0,1.26,1.084Z"/></svg>