<svg id="Layer_1" data-name="Layer 1" xmlns="http://www.w3.org/2000/svg" xmlns:xlink="http://www.w3.org/1999/xlink" viewBox="0 0 1683.78 1190.55"><defs><style>.cls-1,.cls-38{fill:none;}.cls-2{font-size:50px;}.cls-12,.cls-16,.cls-2,.cls-28,.cls-32,.cls-37,.cls-4,.cls-8{fill:#fff;}.cls-12,.cls-2,.cls-28,.cls-3,.cls-34,.cls-37,.cls-4,.cls-8{font-family:Aller-Bold, Aller;font-weight:700;}.cls-3{font-size:62px;}.cls-3,.cls-31{fill:#f48328;}.cls-4{font-size:30px;}.cls-5{letter-spacing:-0.032em;}.cls-6{letter-spacing:-0.019em;}.cls-7{letter-spacing:0em;}.cls-8{font-size:60px;}.cls-9{letter-spacing:-0.015em;}.cls-10{letter-spacing:0em;}.cls-11{letter-spacing:-0.019em;}.cls-12{font-size:46px;}.cls-13{letter-spacing:-0.099em;}.cls-14{letter-spacing:-0.04em;}.cls-15{letter-spacing:0em;}.cls-16{font-size:36px;font-family:Aller-Regular, Aller;}.cls-17{letter-spacing:-0.081em;}.cls-18{letter-spacing:-0.012em;}.cls-19{letter-spacing:-0.015em;}.cls-20{letter-spacing:-0.01em;}.cls-21{letter-spacing:-0.039em;}.cls-22{letter-spacing:-0.015em;}.cls-23{letter-spacing:-0.015em;}.cls-24{letter-spacing:0em;}.cls-25{letter-spacing:-0.014em;}.cls-26{letter-spacing:-0.004em;}.cls-27{letter-spacing:-0.039em;}.cls-28{font-size:150px;}.cls-29{letter-spacing:-0.054em;}.cls-30{clip-path:url(#clip-path);}.cls-33,.cls-34,.cls-35,.cls-36{font-size:59.4478px;fill:#f69331;}.cls-33{font-family:Aller-Light, Aller Light;}.cls-35{font-family:Aller-LightItalic, Aller Light;font-style:italic;}.cls-36{font-family:AllerDisplay, Aller Display;}.cls-37{font-size:81.0651px;}.cls-38{stroke:#fff;stroke-width:5px;}</style><clipPath id="clip-path"><rect class="cls-1" y="-0.001" width="1683.78" height="1190.551"/></clipPath></defs><title>Artboard 1</title><text class="cls-2" transform="translate(194.2808 376.9036)">1x </text><text class="cls-3" transform="translate(261.9795 376.9036)">Angular Schulung</text><text class="cls-2" transform="translate(761.7524 376.9036)"> </text><text class="cls-4" transform="translate(772.752 376.9036)">im <tspan class="cls-5" x="42.1792" y="0">W</tspan><tspan x="68.8486" y="0">ert </tspan><tspan class="cls-6" x="115.8584" y="0">v</tspan><tspan class="cls-7" x="131.6074" y="0">on 1.450,- €</tspan></text><text class="cls-2" transform="translate(194.2808 458.9036)">5x </text><text class="cls-8" transform="translate(261.9795 458.9036)">Geek &amp; <tspan class="cls-9" x="211.7964" y="0">P</tspan><tspan class="cls-10" x="245.876" y="0">o</tspan><tspan class="cls-11" x="280.6748" y="0">k</tspan><tspan x="311.6343" y="0">e Bücher</tspan></text><text class="cls-12" transform="translate(129.5205 626.1653)"><tspan class="cls-13">T</tspan><tspan x="21.5273" y="0">eilnahme via </tspan><tspan class="cls-14" x="304.0542" y="0">T</tspan><tspan class="cls-15" x="328.2959" y="0">witter</tspan></text><text class="cls-16" transform="translate(129.5205 669.3655)">Dein <tspan class="cls-17" x="84.8867" y="0">T</tspan><tspan class="cls-18" x="100.9063" y="0">e</tspan><tspan x="120.4902" y="0">xt + „@the</tspan><tspan class="cls-19" x="296.8877" y="0">C</tspan><tspan x="318.5952" y="0">ode</tspan><tspan class="cls-20" x="380.479" y="0">C</tspan><tspan x="402.3672" y="0">ampus #angular Schulung #herbstcampus16“</tspan></text><text class="cls-16" transform="translate(129.5205 712.5657)"><tspan class="cls-21">T</tspan><tspan class="cls-22" x="17.5313" y="0">w</tspan><tspan x="44.8911" y="0">eet mit meisten </tspan><tspan class="cls-23" x="308.6235" y="0">R</tspan><tspan class="cls-24" x="329.5752" y="0">et</tspan><tspan class="cls-22" x="362.4785" y="0">w</tspan><tspan x="389.8384" y="0">eets </tspan><tspan class="cls-20" x="467.6694" y="0">g</tspan><tspan class="cls-25" x="487.2173" y="0">e</tspan><tspan x="506.729" y="0">winnt</tspan></text><text class="cls-16" transform="translate(129.5205 798.9651)"><tspan class="cls-17">T</tspan><tspan x="16.0195" y="0">eilnahme bis 05.09.16 10:00</tspan></text><text class="cls-16" transform="translate(129.5205 842.1653)">Be<tspan class="cls-26" x="41.4355" y="0">k</tspan><tspan x="59.7954" y="0">anntgabe der G</tspan><tspan class="cls-22" x="308.769" y="0">e</tspan><tspan x="328.2451" y="0">winner via </tspan><tspan class="cls-27" x="506.6948" y="0">T</tspan><tspan class="cls-24" x="524.2266" y="0">witter</tspan></text><text class="cls-28" transform="translate(129.5205 202.1277)"><tspan class="cls-29">V</tspan><tspan x="88.6484" y="0">erlosung</tspan></text><g class="cls-30"><path class="cls-31" d="M1305.812,142.4846c6.6869-5.731,18.709-7.42,26.7159-3.7549l8.927,4.0869c8.0081,3.666,21.465,4.6071,29.9041,2.0911l9.4089-2.8051c8.44-2.516,20.11.8311,25.9351,7.437l6.4919,7.364c5.825,6.606,17.735,12.939,26.469,14.074l9.735,1.264c8.734,1.135,18.0341,8.938,20.667,17.342l2.937,9.368c2.6331,8.405,10.938,19.034,18.4561,23.623l8.3779,5.115c7.5181,4.589,12.84,15.502,11.828,24.25l-1.1289,9.751c-1.0111,8.748,2.252,21.837,7.2529,29.087l5.574,8.082c5.0011,7.249,5.425,19.382.943,26.963l-4.9979,8.45c-4.483,7.581-6.826,20.866-5.2061,29.522l1.806,9.65c1.62,8.656-2.928,19.913-10.1071,25.015l-8.002,5.687c-7.179,5.1021-14.722,16.286-16.764,24.853l-2.2749,9.55c-2.041,8.568-10.774,17.001-19.4071,18.742l-9.6239,1.94c-8.6321,1.741-20.073,8.889-25.422,15.886l-5.963,7.799c-5.349,6.997-16.7581,11.149-25.353,9.227l-9.58-2.141c-8.5951-1.922-21.9541-.044-29.686,4.172l-8.619,4.699c-7.7321,4.216-19.844,3.37-26.9141-1.881l-7.882-5.854c-7.071-5.251-20.0389-8.969-28.817-8.263l-9.7849.788c-8.7781.706-19.498-4.994-23.822-12.667l-4.8191-8.553c-4.324-7.6721-14.657-16.3441-22.964-19.269l-9.26-3.261c-8.3069-2.926-15.782-12.493-16.61-21.26l-.9239-9.774c-.83-8.768-6.743-20.892-13.142-26.944l-7.1331-6.7451c-6.3989-6.0519-9.3359-17.832-6.526-26.179l3.13-9.305c2.809-8.347,2.338-21.828-1.046-29.959l-3.772-9.062c-3.384-8.131-1.277-20.087,4.6851-26.571l6.6439-7.226c5.962-6.483,11.015-18.99,11.23-27.795l.24-9.815c.2151-8.804,7.004-18.869,15.087-22.367l9.01-3.8979c8.083-3.499,17.786-12.869,21.5651-20.825l4.209-8.868c3.7789-7.955,14.075-14.389,22.881-14.297l9.817.103c8.8059.0919,21.4829-4.522,28.1689-10.2531Z"/><path class="cls-32" d="M1334.171,138.6328c7.5179-4.5869,19.657-4.3309,26.974.57l8.157,5.463c7.317,4.9,20.45,7.983,29.184,6.8519l9.7371-1.2639c8.7329-1.1331,19.7179,4.0389,24.41,11.4929l5.229,8.309c4.692,7.453,15.4351,15.611,23.875,18.129l9.407,2.806c8.4391,2.519,16.37,11.711,17.624,20.427l1.399,9.717c1.254,8.717,7.75,20.54,14.436,26.272l7.4529,6.391c6.686,5.733,10.192,17.356,7.7921,25.83l-2.675,9.446c-2.399,8.473-1.273,21.917,2.5031,29.873l4.209,8.868c3.776,7.957,2.252,20.002-3.386,26.768l-6.286,7.541c-5.639,6.765-10.078,19.504-9.864,28.308l.2369,9.815c.214,8.804-6.078,19.187-13.981,23.074l-8.81,4.333c-7.902,3.887-17.1389,13.719-20.5239,21.848l-3.776,9.064c-3.386,8.129-13.3561,15.0569-22.157,15.3929l-9.81.375c-8.8.336-21.2369,5.56-27.637,11.611l-7.135,6.744c-6.401,6.05-18.327,8.322-26.5031,5.049l-9.114-3.647c-8.1759-3.272-21.663-3.558-29.9709-.635l-9.261,3.26c-8.308,2.923-20.1271.149-26.265-6.167l-6.843-7.038c-6.139-6.316-18.344-12.062-27.1219-12.77l-9.786-.789c-8.7781-.709-18.448-8.051-21.4871-16.317l-3.3879-9.214c-3.0391-8.266-11.8521-18.48-19.583-22.697l-8.619-4.701c-7.731-4.217-13.578-14.858-12.9919-23.645l.653-9.796c.585-8.787-3.311-21.702-8.6591-28.699l-5.9619-7.801c-5.347-6.997-6.36-19.097-2.251-26.886l4.58-8.683c4.108-7.789,5.802-21.173,3.7629-29.74l-2.2729-9.55c-2.0391-8.568,1.955-20.032,8.877-25.478l7.717-6.07c6.922-5.445,13.913-16.9821,15.5341-25.639l1.808-9.649c1.6219-8.656,9.9349-17.505,18.474-19.663l9.517-2.407c8.5389-2.159,19.618-9.855,24.62-17.103l5.5761-8.08c5.002-7.248,16.1959-11.95,24.8739-10.4491l9.6731,1.6721c8.678,1.501,21.93-1.024,29.448-5.6121Z"/><path class="cls-31" d="M1440.938,375.707q1.0007.009,1.963-.076t1.796-.202q.834-.117,1.7061-.315t1.74-.419l-4.099-29.166,8.7739-1.233a15.7755,15.7755,0,0,0-.14-3.129,15.3252,15.3252,0,0,0-.7141-2.949l-24.7539,3.479a15.4051,15.4051,0,0,0,.126,3.031,15.9634,15.9634,0,0,0,.728,3.047l8.7749-1.233Zm-32.891,4.623,20.343-2.859a15.9471,15.9471,0,0,0-.14-3.13,15.388,15.388,0,0,0-.715-2.948l-13.1849,1.853-1.3091-9.314,10.1951-1.433a16.2711,16.2711,0,0,0-.14-3.129,16.6134,16.6134,0,0,0-.7211-2.998l-10.1949,1.433-1.075-7.646,12.8429-1.805a15.9381,15.9381,0,0,0-.14-3.13,15.4172,15.4172,0,0,0-.715-2.949l-19.999,2.811Zm-26.027,3.658,20.342-2.859a15.9479,15.9479,0,0,0-.14-3.13,15.4157,15.4157,0,0,0-.714-2.949l-13.186,1.854-1.309-9.314,10.1959-1.433a16.42,16.42,0,0,0-.14-3.129,16.6176,16.6176,0,0,0-.722-2.998l-10.1949,1.433-1.0751-7.647,12.843-1.804a15.9479,15.9479,0,0,0-.14-3.13,15.4155,15.4155,0,0,0-.714-2.949l-20,2.811Zm-39.41,5.538a20.2805,20.2805,0,0,0,3.326-.1671,18.8673,18.8673,0,0,0,1.9709-.377q.8926-.2265,2.056-.489l2.7781-24.334,8.9369,22.687a31.2525,31.2525,0,0,0,4.11-.277,22.6118,22.6118,0,0,0,3.635-.811l3.526-36.435q-.8956.0255-1.8411.059a18.3974,18.3974,0,0,0-1.925.17,16.685,16.685,0,0,0-3.0959.735l-1.225,27.914-10.147-26.316a19.123,19.123,0,0,0-3.2271.1541q-.8835.1244-1.7061.315t-1.782.475l-2.3519,27.373-8.775-25.809a11.112,11.112,0,0,0-1.824.006q-.915.0795-1.796.203a24.7917,24.7917,0,0,0-3.978.859Zm-26.6649,3.748q1,.009,1.964-.076.963-.0871,1.796-.203t1.705-.314q.873-.198,1.741-.42l-4.099-29.165,8.774-1.233a15.8727,15.8727,0,0,0-.14-3.13,15.342,15.342,0,0,0-.714-2.949l-24.754,3.479a15.4182,15.4182,0,0,0,.126,3.032,15.89,15.89,0,0,0,.728,3.046l8.774-1.233Zm-32.89,4.622,20.342-2.859a15.7856,15.7856,0,0,0-.14-3.129,15.3335,15.3335,0,0,0-.714-2.949l-13.186,1.853-1.309-9.313,10.1959-1.433a16.3409,16.3409,0,0,0-.14-3.129,16.6451,16.6451,0,0,0-.7209-2.998l-10.196,1.433-1.074-7.647,12.842-1.805a15.7856,15.7856,0,0,0-.14-3.129,15.3243,15.3243,0,0,0-.714-2.949l-19.999,2.811Zm-29.606,4.1609q1,.0091,1.939-.073c.625-.055,1.2159-.12,1.772-.199s1.124-.183,1.705-.314,1.162-.272,1.74-.42l-4.1809-29.753a12.0416,12.0416,0,0,1,1.94-.423,7.03,7.03,0,0,1,4.762.805,6.5533,6.5533,0,0,1,2.1471,7.097,7.4662,7.4662,0,0,1-1.269,2.177,10.4271,10.4271,0,0,1-1.697,1.613q-.906.678-1.543,1.117l-1.094.753,11.516,15.077a23.2331,23.2331,0,0,0,3.718-.222q1.1265-.159,2.192-.408,1.0635-.25,2.031-.486l-10.672-13.696.757-.656a11.71,11.71,0,0,0,1.484-1.533,10.8723,10.8723,0,0,0,1.37-2.1671,10.6521,10.6521,0,0,0,.882-2.798,11.22,11.22,0,0,0,.004-3.525,10.3707,10.3707,0,0,0-2.06-5.2339,9.8924,9.8924,0,0,0-3.8821-2.903,14.5,14.5,0,0,0-4.975-1.075,29.1368,29.1368,0,0,0-5.387.257q-2.304.324-4.167.761t-3.985.984Z"/><path class="cls-31" d="M1421.79,318.4153q1.0007.0091,1.9641-.076.9615-.0855,1.7959-.202.8326-.117,1.7051-.315t1.74-.419l-4.099-29.166,8.775-1.233a15.934,15.934,0,0,0-.14-3.129,15.3981,15.3981,0,0,0-.7151-2.949l-24.7539,3.4789a15.3309,15.3309,0,0,0,.127,3.031,15.8169,15.8169,0,0,0,.728,3.047l8.7739-1.233Zm-32.89,4.623,20.3419-2.859a15.9477,15.9477,0,0,0-.14-3.13,15.386,15.386,0,0,0-.714-2.948l-13.1859,1.853-1.3091-9.314,10.196-1.433a16.43,16.43,0,0,0-.14-3.129,16.6948,16.6948,0,0,0-.7209-2.998l-10.196,1.433-1.075-7.646,12.8429-1.805a15.938,15.938,0,0,0-.14-3.13,15.4246,15.4246,0,0,0-.7141-2.949l-20,2.811Zm-24.166,3.396,19.2639-2.707a14.59,14.59,0,0,0-.028-1.621q-.0584-.7666-.168-1.551-.0961-.6855-.2521-1.439a14.8673,14.8673,0,0,0-.42-1.566l-12.2051,1.716-4.085-29.068a23.2074,23.2074,0,0,0-3.62.209,21.9326,21.9326,0,0,0-3.439.783Zm-41.89-24.204a14.354,14.354,0,0,1,1.5759-.347q.9031-.1515,1.59-.248a13.3646,13.3646,0,0,1,3.976.016,8.127,8.127,0,0,1,3.532,1.478,9.5663,9.5663,0,0,1,2.7781,3.4091,21.5533,21.5533,0,0,1,1.66,11.813,9.6,9.6,0,0,1-1.7379,3.993,7.6254,7.6254,0,0,1-3.092,2.359,16.4541,16.4541,0,0,1-4.119,1.104q-.9809.138-1.673.185-.6945.048-1.142.06Zm-3.058,30.521q2.0925-.045,4.225-.169t4.632-.476q9.6555-1.3575,13.9451-6.409t2.9869-14.315q-1.296-9.2161-6.771-13.145-5.4765-3.927-14.74-2.627-2.7464.387-4.976.875t-4.255,1.022Zm-32.891,4.622a16.6606,16.6606,0,0,0,3.179-.146,17.486,17.486,0,0,0,3.145-.742l-3.149-22.401,16.874,20.472a17.0622,17.0622,0,0,0,3.031-.126,15.805,15.805,0,0,0,2.802-.694l-4.954-35.243a14.5678,14.5678,0,0,0-2.9821.119,20.7835,20.7835,0,0,0-3.3409.769l3.155,22.45-16.7821-20.535a16.7129,16.7129,0,0,0-3.08.133,15.4431,15.4431,0,0,0-2.851.701Zm-25.3041-9.689,2.1841-15.403,6.1489,14.231Zm-8.8109,14.4839a21.9109,21.9109,0,0,0,3.62-.209,20.7454,20.7454,0,0,0,3.34-.769l1.0179-7.341,11.666-1.64,2.953,6.783a22.2845,22.2845,0,0,0,3.6691-.215,27.4135,27.4135,0,0,0,3.88-.846l-15.9821-33.693q-1.149.012-2.09.069t-1.922.195q-1.1281.1575-2.0481.363-.9225.204-1.93.496Z"/><path class="cls-31" d="M1396.4154,261.9985q1,.01,1.964-.076t1.796-.202q.8326-.117,1.705-.315.873-.1965,1.7411-.419l-4.099-29.166,8.7739-1.233a15.86,15.86,0,0,0-.14-3.129,15.3245,15.3245,0,0,0-.714-2.949l-24.754,3.479a15.396,15.396,0,0,0,.1261,3.031,15.89,15.89,0,0,0,.7279,3.047l8.774-1.233Zm-32.89,4.623,20.342-2.859a15.785,15.785,0,0,0-.14-3.129,15.3251,15.3251,0,0,0-.714-2.949l-13.186,1.853-1.309-9.313,10.1959-1.433a16.3544,16.3544,0,0,0-.14-3.13,16.6661,16.6661,0,0,0-.7211-2.997l-10.196,1.432-1.074-7.646,12.842-1.805a15.8729,15.8729,0,0,0-.14-3.13,15.3158,15.3158,0,0,0-.714-2.948l-19.999,2.81Zm-26.028,3.658,20.343-2.859a15.9346,15.9346,0,0,0-.14-3.129,15.3991,15.3991,0,0,0-.7151-2.949l-13.1849,1.853-1.309-9.313,10.1949-1.433a16.361,16.361,0,0,0-.14-3.13,16.5727,16.5727,0,0,0-.7209-2.997l-10.1951,1.432-1.075-7.646,12.842-1.805a15.7985,15.7985,0,0,0-.14-3.13,15.3227,15.3227,0,0,0-.714-2.948l-19.999,2.81Zm-39.4091,5.539a20.3665,20.3665,0,0,0,3.3251-.168,18.8383,18.8383,0,0,0,1.9719-.377q.8925-.2265,2.0551-.489l2.7789-24.333,8.937,22.687a31.2333,31.2333,0,0,0,4.109-.278,22.4747,22.4747,0,0,0,3.635-.811l3.527-36.435q-.8954.027-1.8409.059a18.7072,18.7072,0,0,0-1.926.17,16.703,16.703,0,0,0-3.095.735l-1.2261,27.915-10.146-26.316a19.1506,19.1506,0,0,0-3.2279.153q-.882.1245-1.7051.315t-1.783.475l-2.3511,27.373-8.776-25.809a11.21,11.21,0,0,0-1.823.007q-.915.078-1.7959.202a24.8783,24.8783,0,0,0-3.978.859Zm-26.6649,3.7469q1,.0091,1.964-.076.9615-.0855,1.7959-.203.8326-.117,1.7051-.314t1.741-.42l-4.099-29.165,8.774-1.233a15.9477,15.9477,0,0,0-.14-3.13,15.3256,15.3256,0,0,0-.7151-2.948l-24.7529,3.479a15.337,15.337,0,0,0,.126,3.031,15.8354,15.8354,0,0,0,.728,3.047l8.7739-1.233Z"/></g><text class="cls-33" transform="translate(136.3335 1084.7971)">th</text><text class="cls-33" transform="translate(190.4912 1084.7971)">e</text><text class="cls-34" transform="translate(223.3652 1084.7971)">c</text><text class="cls-34" transform="translate(250.7109 1084.7971)">ode</text><text class="cls-35" transform="translate(353.5557 1084.7971)">ca</text><text class="cls-35" transform="translate(412.1118 1084.7971)">m</text><text class="cls-35" transform="translate(461.335 1084.7971)">p</text><text class="cls-35" transform="translate(494.5068 1084.7971)">us</text><text class="cls-36" transform="translate(565.8438 1084.7971)">&lt;/&gt;</text><text class="cls-37" transform="translate(128.2246 1026.5081)">W</text><text class="cls-37" transform="translate(200.21 1026.5081)">eiter</text><text class="cls-37" transform="translate(372.6357 1026.5081)">.Entwick</text><text class="cls-37" transform="translate(688.2222 1026.5081)">eln.</text><g class="cls-30"><path class="cls-32" d="M1532.7554,949.1828a3.1317,3.1317,0,0,1-3.0891-2.628c-3.5089-21.598-18.1129-41.477-36.345-49.466a3.13,3.13,0,1,1,2.512-5.733c20.1011,8.805,36.1781,30.585,40.0121,54.197a3.1323,3.1323,0,0,1-2.588,3.591,3.3145,3.3145,0,0,1-.502.039"/><path class="cls-32" d="M1418.0923,950.82a2.7709,2.7709,0,0,1-.427-.033,3.126,3.126,0,0,1-2.68-3.528c3.355-24.551,19.696-47.091,40.668-56.075a3.13,3.13,0,1,1,2.467,5.753c-18.724,8.024-33.912,29.067-36.933,51.172a3.1309,3.1309,0,0,1-3.095,2.711"/><path class="cls-32" d="M1473.5884,835.38c-15.64,0-26.5651,11.695-26.5651,28.439,0,17.977,11.917,32.609,26.5651,32.609s26.5619-14.632,26.5619-32.609c0-16.744-10.922-28.439-26.5619-28.439m0,67.304c-18.1011,0-32.8241-17.435-32.8241-38.865,0-20.431,13.4971-34.702,32.8241-34.702s32.823,14.271,32.823,34.702c0,21.43-14.723,38.865-32.823,38.865"/><path class="cls-32" d="M1401.0015,1073.5566a3.13,3.13,0,0,1-3.1321-3.131V944.5836h156.374l.004,125.505a3.132,3.132,0,0,1-6.264,0V950.8466h-143.855v119.579a3.1272,3.1272,0,0,1-3.127,3.131"/><path class="cls-31" d="M1390.5624,850.63l25.91,9.317-4.368-20.331,1.552-1.21c14.193-11.025,22.006-25.688,22.006-41.285,0-32.11-33.422-58.228-74.51-58.228-41.082,0-74.5061,26.118-74.5061,58.228a46.5938,46.5938,0,0,0,3.57,17.838c9.962,24.161,38.4709,40.393,70.936,40.393a92.25,92.25,0,0,0,28.392-4.391Zm34.3971,19.023-34.515-12.41a98.5211,98.5211,0,0,1-29.292,4.371c-34.9711,0-65.8041-17.789-76.723-44.268a52.8016,52.8016,0,0,1-4.047-20.225c0-35.562,36.236-64.491,80.77-64.491,44.537,0,80.7729,28.929,80.7729,64.491,0,16.988-8.108,32.896-22.877,44.995Z"/><path class="cls-32" d="M1344.8921,785.1842a24.3491,24.3491,0,0,1,.3329,3.515c0,.631-.0149,1.262-.053,1.894a12.9647,12.9647,0,0,1-.223,1.782l-16.8369,6.075,16.8369,5.745a13.0113,13.0113,0,0,1,.223,1.753c.0381.615.053,1.237.053,1.872,0,.519-.0149,1.115-.053,1.779a15.2383,15.2383,0,0,1-.28,2.123l-23.0791-9.143a19.6837,19.6837,0,0,1-.5029-4.348,16.2064,16.2064,0,0,1,.5029-3.958Z"/><path class="cls-32" d="M1364.18,777.2678a25.3087,25.3087,0,0,1,4.0139-.333,23.9868,23.9868,0,0,1,3.9041.333l-13.603,40.085a24.5234,24.5234,0,0,1-3.9611.334,24.1888,24.1888,0,0,1-3.902-.334Z"/><path class="cls-32" d="M1394.6187,798.45l-16.8341-5.741a12.9233,12.9233,0,0,1-.225-1.753c-.035-.614-.0549-1.236-.0549-1.868,0-.518.02-1.117.0549-1.785a15.3193,15.3193,0,0,1,.2781-2.119l23.08,9.142a20.1107,20.1107,0,0,1,.504,4.351,16.1027,16.1027,0,0,1-.504,3.958l-23.08,9.087a24.6456,24.6456,0,0,1-.333-3.512c0-.635.02-1.263.0549-1.898a13.0151,13.0151,0,0,1,.225-1.782Z"/></g><polygon class="cls-32" points="1398.007 949.473 1398.007 1095.766 1398.007 1098.266 1400.507 1098.266 1549.247 1098.266 1551.747 1098.266 1551.747 1095.766 1551.747 949.473 1551.747 946.973 1549.247 946.973 1400.507 946.973 1398.007 946.973 1398.007 949.473"/><rect class="cls-32" x="1401.731" y="949.474" width="146.292" height="146.292"/><path d="M1496.6235,1087.8593h3.954v-3.955h-3.954Zm35.585,0h3.954v-3.955h-3.954Zm-114.662-11.862h-7.908v11.862H1421.5v-11.862Zm7.908-3.954v19.769h-19.77v-19.769h-3.953v23.722h27.676v-23.722Zm11.8621,0v3.954h-3.9551v19.768h11.8621v-7.906h-.001v-3.955h-3.953v3.955h-3.953v-11.862h3.953v-3.954Zm7.907,0v7.907h3.954v-7.907Zm83.031,0v3.954h-11.863v-3.954h-3.952v3.954h-3.954v3.953h-3.955v3.954h7.9089v3.955h-3.954v3.953h-7.908v3.953h7.908v-3.953h7.907v3.953h11.8621v-3.953h-3.954v-3.953h3.953v-3.955h-3.953v3.955h-7.9091v-3.955h7.9091v-3.954h3.954v3.954h3.954v-11.861Zm15.8149,0v3.954h-7.907v3.953h3.953v7.909h3.954v3.953h-7.907v3.953h11.861V1079.95h-3.954v-3.953h3.954v-3.954Zm-118.615-3.955h-23.723v3.954h27.676v-3.954Zm23.723,0h-3.954v3.954h7.907v-3.954Zm47.446,3.954h3.954v-3.954h-3.954Zm23.723,0h3.954v-3.954h-3.954Zm23.7229-3.954h-3.954v3.954h7.908v-3.954Zm-79.0769-3.953v3.953h-3.953v3.954h-3.9551v3.955h7.9081v-7.909h3.953v-3.953Zm-51.4,0h3.955v-3.954h-3.955Zm-11.8611-15.815v15.815h3.953V1048.32Zm19.769,3.954h3.954v-3.954H1421.5Zm118.615-3.954v3.954h-3.953v3.952h7.907v3.955h3.954v-7.907h-3.954v-3.954Zm-11.861-3.955h-11.8621v3.954h15.816v-3.954Zm3.954-7.907h-3.954v3.954h7.908v-3.954Zm-90.939,31.63h-3.954v-3.954h3.954Zm-11.8621-27.676h3.954v3.953h-7.907v-3.953Zm15.816,0v3.953h-3.954v3.954h-7.9081v-3.954h7.9081v-3.953Zm15.816-11.861v3.952h-3.9551v3.955H1441.27v3.954h-3.953v-3.954h-11.8621v3.954H1421.5v3.953h-15.816v3.954h3.9541v3.955h3.954v3.952h-3.954v3.955h3.954v-3.955h3.954v-7.907h11.861v3.955h-3.953v3.952h3.953v-3.952h7.9091v3.952h-3.9551v3.955H1421.5v3.954h11.861v7.907h7.9081v-3.954h3.953v-3.953h.001v-3.954h-.001v-3.955h-3.953v3.955h-3.953v-3.955h3.953v-3.952h3.954v-3.955h3.954v-7.907h15.8151v-3.954h3.953v-3.955h-3.953v3.955h-3.953v-3.955h3.953v-3.952Zm-31.6321-3.954v3.954h-3.953v3.952H1421.5v3.955h3.954v-3.955h7.907v-7.906Zm27.677,0v3.954h-3.954v-3.954h-3.953v7.906h7.907v-3.952h3.9551v-3.954Zm15.816,0v3.954h-3.954v3.952h3.954v-3.952h3.954v-3.954Zm71.1689,0v3.954h-7.907v3.952h3.953v7.909h3.954v3.953h-7.907v3.954h11.861v-11.861h-3.954v-3.955h3.954v-7.906Zm-19.7689-3.955h3.954v-3.954h-3.954Zm-71.17-7.907v3.954h-3.953v3.953h3.953v-3.953h3.954v-3.954Zm15.816-.001h-7.907v3.955h-3.9551v3.953h3.9551v-3.953h3.953v3.953h-3.953v3.954h3.953v-3.954h3.954v3.954h3.954v-3.954h7.907v3.954h3.955v-11.861h-3.955v3.954h-7.907v-3.955Zm7.908,0h3.954v-3.954h-3.954Zm11.8621-3.954h-3.9541v3.954h7.9071v-3.954Zm-23.724-7.906v3.953h-3.953v3.953h-3.9551v3.954h3.9551v-3.954h7.907v-3.953h-.001v-3.953Zm11.8619,3.953h3.954v-3.954h-3.954Zm3.953,79.077h3.955v3.955h-7.908v-3.955Zm39.5391-23.723h-3.9541v-3.955h3.9541Zm-19.769-27.678v3.955h3.953v7.907h-3.953v-3.953h-7.908v-3.954h3.954v-3.955Zm11.8619,3.955h-3.954v-3.955h3.954Zm0-15.816h-3.954v-3.954h3.954Zm0-19.768v3.953h-3.954v3.953h3.954v3.954h-15.8159v3.955h-3.954v3.953h3.954v-3.953h7.907v7.907h3.955v7.907h-3.955v-3.952h-7.907v-3.955h-11.8611v3.955h7.9071v7.907h-3.953v-3.955h-15.816v3.955h-3.954v3.954h3.954v-3.954h11.8619v3.954h-3.955v3.953H1461.04v3.954h3.953v3.955h-7.9081v-3.955h-7.907v3.955h3.953v3.952h-3.953v7.909h3.953v-3.954h3.954v-3.955h3.9551v3.955h-3.9551v3.954h7.9081v-3.954h3.954v-3.955h7.908v-3.952h3.953v11.861h-3.953v-3.954h-7.908v3.954h3.954v3.953h7.907v3.954h-3.953v3.955h-7.908v3.953h7.908v-3.953h11.8621v3.953h-11.8621v3.954h-7.9089v-3.954h-3.953v3.954h-3.953v-3.954h-11.8621v3.954h3.953v3.955h-3.953v7.906h3.953v-3.953h3.954v-3.953h15.816v3.953h-15.816v3.953h23.723v-3.953h7.9091v3.953h3.9519v-3.953h.0011v-3.953h-3.953v-7.909h3.953v3.954h3.954v-3.954h7.907v-3.953h-3.953v-3.954h-3.954v3.954h-3.954v-3.955h-7.9071v-3.954h11.8611v-3.953h7.907v-3.954h3.955v3.954h-3.955v7.907h3.955v-7.907h3.954v7.907h3.952v-7.907h11.863v7.907h3.954v-3.954h7.907v-7.907h-11.861v-7.907h-.001v-3.954h-3.953v3.954h-3.954v-3.954h-3.9541v7.906h-3.953v-3.952h-7.9089v7.907h-7.907v3.954h-11.8611v-3.954h3.9541v-3.955h-3.9541v-3.952h7.9071v-3.955h-11.8621v-3.954h15.816v3.954h7.907v-3.954h3.955v-3.953h3.954v3.953h3.952v-3.953h3.9551v-3.954h-3.9551v-3.955h7.9091v-3.952h3.954v3.952h3.954v-11.861h-3.954v3.954h-15.8151v-3.954h3.952v-3.953h7.9091v-3.955h-3.954v-7.907h-3.9551v-3.953Zm11.8611,0v7.906h7.908v-3.953h-3.955v-3.953Zm-86.984-3.955h3.954v-3.954h-3.954Zm-19.77,35.584h-3.955v-3.953h3.955Zm11.861-15.814h3.954v3.953h-7.907v3.954H1421.5v-3.954h3.954v-3.953Zm0-7.909H1441.27v3.954h-15.8151v-3.954Zm0-19.769h-11.861v3.954h-3.954v3.954h-3.954v3.954h3.954v-3.954h3.954v-3.954h3.954v3.954h3.954v-3.954h3.953v3.954h-3.953v3.954h3.953v3.954h-3.953v3.953H1421.5v3.954h-7.908v-3.954h3.954v-3.953h-11.8621v-3.953h-3.953v23.722h3.953v-3.954h3.9541v-3.953H1421.5v3.953h-7.908v3.954h-3.954v3.955h-3.9541v-3.954h-3.953v15.815h3.953v-7.909h3.9541v3.955h3.954v3.954h3.954v-7.909h3.953v-3.952h3.955v-3.955h7.907v-3.954h3.9551v-3.953h3.953v3.953h-3.953v11.861h3.953v-3.952h3.954v-3.955h-3.954v-3.954h3.953v-3.953h3.955v-7.909h7.907v-3.953h3.9551v-3.953h-3.9551v3.953h-11.861v-3.954h-.001v-3.954h-3.953v3.954h-7.9081v-11.862Zm11.8621,0h3.953v-3.954h-3.953Zm-23.723-7.907h-15.8151v3.953h3.953v3.954h-3.953v11.862h3.953v-7.908h3.9541v-7.908h3.954v3.954h3.954v-3.954h3.954v-3.953Zm98.8459,3.953h3.9541v-3.953h-3.9541Zm-39.538-3.953h3.954V977.15h-3.954Zm7.908-3.953v3.953h-3.955v11.861h-7.907v3.954h-3.954v-3.954h-3.954v-3.954h11.8619v-3.954h-3.954v-3.953h-3.954v3.953h-3.954v3.954h-3.953v-3.954h3.953v-3.953H1453.13v3.953h-3.953v3.954h3.953v-3.954h3.954v11.862h-3.954v-3.954h-3.953v7.908h23.723v-3.954h3.954v3.954h3.953v-7.908h3.955v3.954h3.9541v3.954h-3.9541v3.954h11.8611v-3.954h3.954v3.954h-3.954v3.953h3.954v-3.953h7.908v-3.954h3.954v-3.954h7.9071v3.954h3.954v-3.954h3.954v3.954h7.908v7.907h-3.954v3.954h-3.954v3.955h7.908v7.907h11.861v-3.954h-3.954v-3.953h3.954v-3.954h-3.954v3.954h-3.954v-3.955h-3.953v-3.954h7.907v3.954h3.954v-7.907h-3.954v-3.954h3.954v-3.954h-3.954v3.954h-3.954v-3.954h3.954v-3.954h3.954v-3.953h-3.954v3.953h-3.954v3.954h-3.953v-3.954h3.953v-3.954h3.954v-7.907h-3.954v3.953h-3.953v-3.953h-3.954v7.907h-3.955v-7.907h-3.953v11.861h-3.954v-3.954h-3.9551v-3.954h-3.952v3.954h-7.9089v7.908h-7.907v3.954h-3.9551v-3.954h.0011v-11.862h-.0011v-3.953h-3.9519v3.953h-3.9541v-3.953h3.9541v-3.953Zm-11.8619-.001h3.954v-3.954h-3.954Zm15.816,0h3.953v-3.954h-3.953Zm-39.5391-7.908h-3.954v3.954h3.954v3.954h-3.955v-3.954h-3.953v3.954h-3.953v3.954h-11.8621v3.953H1441.27v-3.953h3.954v3.953h3.954V977.15h3.953v-7.908Zm-23.723-3.953v7.907h-19.77v-7.907h-3.953V977.15h27.676v-11.861Zm11.8621,0v3.953h-3.9551v7.908h3.9551v-3.954h3.953v-7.907Zm19.7679,3.953h3.9551v-3.954h-3.9551Zm7.9081-3.953v3.953h-3.953v3.954h-3.9551v3.954h3.9551v-3.954h3.953v3.954h3.953v-3.954h.001v-3.954h-.001v-3.953Zm47.4469,0v3.953h-3.954v-3.953h-3.955V977.15h3.955v-3.954h3.954v3.954h-3.954v3.954h-7.908v-7.908h-3.954v3.954h-3.954v3.954h3.954v3.953h15.8159v-3.953h3.953V977.15h-.001v-3.954h.001v-3.954h-.001v-3.953Zm31.63,0v7.907h-19.7689v-7.907h-3.954V977.15h27.6769v-11.861Zm-102.8-3.955h-7.9081v3.954h11.8621v-3.954Zm-23.723-3.953h-7.908v11.861H1421.5v-11.861Zm118.616,0h-7.908v11.861h11.861v-11.861Zm-134.431-3.953v11.86h3.953v-11.86Zm23.723,0v11.86h3.953v-11.86Zm7.907,3.953h3.9551v-3.954h-3.9551Zm7.9081,0h3.953v-3.954h-3.953Zm79.077-3.953v11.86h3.954v-11.86Zm23.7229,0v11.86h3.954v-11.86Zm-142.338-3.955v3.954h27.676v-3.954Zm39.5381,3.954h3.953v-3.954h-3.953Zm7.908-3.954v3.954h7.907v-3.954Zm55.353,11.861h-3.954v-3.953h3.954Zm-3.953-11.861v7.908h-3.954v7.907h-3.9551v-3.954h.0011v-7.907h3.954v-3.954h-3.954v3.954h-7.9071v-3.954h-19.77v3.954h-7.9081v7.907h-3.954v-3.953h-3.953v7.907h15.8151v-7.907h3.954v-3.954h11.861v3.954h-3.953v-3.953h-3.954v7.906h-3.954v3.954h3.954v-3.954h7.907v-3.953h3.955v3.953h3.9541v3.954h-11.8621v3.954h3.953v7.908h3.955v-3.954h3.9541v-3.954h7.907v-3.954h19.7689v-7.907h-3.953v-3.954h-3.954v-3.954Zm19.769,0v3.954h27.6769v-3.954Z"/><polygon class="cls-38" points="1398.007 949.473 1398.007 1095.766 1398.007 1098.266 1400.507 1098.266 1549.247 1098.266 1551.747 1098.266 1551.747 1095.766 1551.747 949.473 1551.747 946.973 1549.247 946.973 1400.507 946.973 1398.007 946.973 1398.007 949.473"/></svg>